<svg width="886" height="465" viewBox="0 0 886 465" fill="none" xmlns="http://www.w3.org/2000/svg">
<rect width="886" height="465" fill="#E6007A"/>
<path d="M784.177 380V371.128H787.095C788.487 371.128 789.59 371.522 790.404 372.311C791.221 373.1 791.63 374.18 791.63 375.552C791.63 376.898 791.217 377.976 790.391 378.786C789.569 379.595 788.471 380 787.095 380H784.177ZM785.391 378.872H787.021C788.074 378.872 788.902 378.587 789.505 378.017C790.108 377.447 790.41 376.628 790.41 375.558C790.41 374.472 790.106 373.65 789.499 373.092C788.896 372.534 788.074 372.256 787.033 372.256H785.391V378.872ZM796.184 380.204C795.192 380.204 794.387 379.884 793.767 379.244C793.148 378.604 792.838 377.772 792.838 376.747C792.838 375.773 793.137 374.953 793.736 374.288C794.339 373.619 795.134 373.284 796.122 373.284C797.059 373.284 797.809 373.569 798.371 374.139C798.936 374.709 799.219 375.428 799.219 376.295V377.039H793.507V376.115H798.048V376.109C798.024 375.605 797.842 375.18 797.503 374.833C797.169 374.486 796.708 374.312 796.122 374.312C795.506 374.312 795 374.531 794.604 374.969C794.211 375.403 794.015 375.994 794.015 376.741C794.015 377.518 794.224 378.117 794.641 378.538C795.062 378.955 795.595 379.164 796.239 379.164C796.528 379.164 796.78 379.128 796.995 379.058C797.21 378.988 797.408 378.887 797.59 378.755C797.776 378.623 797.984 378.416 798.216 378.135L799.058 378.718C798.806 379.11 798.544 379.403 798.271 379.597C798.003 379.791 797.706 379.94 797.379 380.043C797.057 380.151 796.659 380.204 796.184 380.204ZM802.45 380L799.829 373.488H801.087L802.816 378.036L803.032 378.662H803.07L803.299 378.03L805.04 373.488H806.267L803.633 380H802.45ZM810.015 380.204C809.023 380.204 808.218 379.884 807.598 379.244C806.979 378.604 806.669 377.772 806.669 376.747C806.669 375.773 806.968 374.953 807.567 374.288C808.17 373.619 808.966 373.284 809.953 373.284C810.89 373.284 811.64 373.569 812.202 374.139C812.768 374.709 813.05 375.428 813.05 376.295V377.039H807.338V376.115H811.879V376.109C811.855 375.605 811.673 375.18 811.334 374.833C811 374.486 810.539 374.312 809.953 374.312C809.337 374.312 808.831 374.531 808.435 374.969C808.042 375.403 807.846 375.994 807.846 376.741C807.846 377.518 808.055 378.117 808.472 378.538C808.893 378.955 809.426 379.164 810.07 379.164C810.36 379.164 810.611 379.128 810.826 379.058C811.041 378.988 811.239 378.887 811.421 378.755C811.607 378.623 811.815 378.416 812.047 378.135L812.889 378.718C812.637 379.11 812.375 379.403 812.103 379.597C811.834 379.791 811.537 379.94 811.21 380.043C810.888 380.151 810.49 380.204 810.015 380.204ZM814.538 380V370.936H815.709V380H814.538ZM820.599 380.204C819.583 380.204 818.755 379.876 818.114 379.219C817.478 378.563 817.16 377.739 817.16 376.747C817.16 375.744 817.482 374.916 818.127 374.263C818.775 373.61 819.599 373.284 820.599 373.284C821.603 373.284 822.427 373.617 823.071 374.282C823.719 374.942 824.044 375.764 824.044 376.747C824.044 377.73 823.726 378.552 823.089 379.213C822.453 379.874 821.623 380.204 820.599 380.204ZM820.599 379.145C821.247 379.145 821.784 378.924 822.21 378.482C822.639 378.036 822.854 377.458 822.854 376.747C822.854 376.041 822.639 375.465 822.21 375.019C821.784 374.569 821.247 374.343 820.599 374.343C819.95 374.343 819.413 374.567 818.988 375.013C818.563 375.455 818.35 376.033 818.35 376.747C818.35 377.462 818.561 378.04 818.982 378.482C819.407 378.924 819.946 379.145 820.599 379.145ZM825.501 382.707V373.495H826.635V374.852L826.387 374.542H826.672C826.891 374.166 827.205 373.862 827.614 373.631C828.023 373.4 828.479 373.284 828.983 373.284C829.88 373.284 830.623 373.602 831.214 374.238C831.804 374.87 832.1 375.706 832.1 376.747C832.1 377.788 831.794 378.625 831.183 379.257C830.571 379.888 829.846 380.204 829.008 380.204C828.463 380.204 827.988 380.095 827.583 379.876C827.182 379.657 826.891 379.378 826.709 379.04H826.672V382.707H825.501ZM828.773 379.201C829.405 379.201 829.919 378.972 830.315 378.513C830.712 378.055 830.91 377.46 830.91 376.729C830.91 375.994 830.704 375.405 830.291 374.963C829.882 374.517 829.376 374.294 828.773 374.294C828.161 374.294 827.649 374.525 827.236 374.988C826.823 375.446 826.617 376.031 826.617 376.741C826.617 377.468 826.815 378.061 827.211 378.519C827.608 378.974 828.128 379.201 828.773 379.201ZM836.491 380.204C835.5 380.204 834.694 379.884 834.075 379.244C833.455 378.604 833.145 377.772 833.145 376.747C833.145 375.773 833.445 374.953 834.044 374.288C834.647 373.619 835.442 373.284 836.429 373.284C837.367 373.284 838.116 373.569 838.678 374.139C839.244 374.709 839.527 375.428 839.527 376.295V377.039H833.814V376.115H838.356V376.109C838.331 375.605 838.149 375.18 837.811 374.833C837.476 374.486 837.015 374.312 836.429 374.312C835.814 374.312 835.308 374.531 834.911 374.969C834.519 375.403 834.322 375.994 834.322 376.741C834.322 377.518 834.531 378.117 834.948 378.538C835.37 378.955 835.902 379.164 836.547 379.164C836.836 379.164 837.088 379.128 837.303 379.058C837.517 378.988 837.716 378.887 837.897 378.755C838.083 378.623 838.292 378.416 838.523 378.135L839.366 378.718C839.114 379.11 838.851 379.403 838.579 379.597C838.31 379.791 838.013 379.94 837.687 380.043C837.364 380.151 836.966 380.204 836.491 380.204ZM843.759 380.204C842.867 380.204 842.117 379.886 841.51 379.25C840.903 378.61 840.599 377.778 840.599 376.754C840.599 375.713 840.897 374.876 841.491 374.244C842.086 373.612 842.817 373.296 843.685 373.296C844.213 373.296 844.68 373.414 845.085 373.65C845.49 373.881 845.791 374.166 845.989 374.505H846.027V370.936H847.198V380H846.064V378.823L846.243 379.071H846.027C845.804 379.401 845.496 379.674 845.103 379.888C844.715 380.099 844.267 380.204 843.759 380.204ZM843.939 379.207C844.55 379.207 845.058 378.986 845.463 378.544C845.872 378.098 846.076 377.505 846.076 376.766C846.076 376.027 845.868 375.432 845.45 374.982C845.033 374.531 844.529 374.306 843.939 374.306C843.319 374.306 842.805 374.531 842.396 374.982C841.987 375.432 841.783 376.022 841.783 376.754C841.783 377.485 841.985 378.077 842.39 378.532C842.795 378.982 843.311 379.207 843.939 379.207ZM852.449 380V371.128H855.658C856.468 371.128 857.116 371.347 857.604 371.785C858.095 372.218 858.341 372.764 858.341 373.42C858.341 373.912 858.217 374.321 857.969 374.647C857.726 374.973 857.404 375.211 857.003 375.36V375.403C857.507 375.523 857.916 375.771 858.23 376.146C858.548 376.522 858.707 376.977 858.707 377.509C858.707 378.228 858.453 378.823 857.945 379.294C857.441 379.765 856.77 380 855.931 380H852.449ZM853.639 378.91H855.912C856.367 378.91 856.747 378.775 857.052 378.507C857.358 378.234 857.511 377.885 857.511 377.46C857.511 377.039 857.356 376.683 857.046 376.394C856.736 376.105 856.332 375.961 855.832 375.961H853.236V374.907H855.646C856.092 374.907 856.458 374.783 856.743 374.536C857.028 374.284 857.17 373.951 857.17 373.538C857.17 373.125 857.026 372.803 856.736 372.572C856.452 372.336 856.09 372.218 855.652 372.218H853.639V378.91ZM860.518 382.707L862.159 379.213L862.178 380.019L859.34 373.488H860.586L862.333 377.782L862.525 378.34H862.562L862.773 377.776L864.514 373.488H865.734L861.72 382.707H860.518Z" fill="white"/>
<path d="M730.018 416.492C727.673 416.492 725.732 415.703 724.196 414.126C722.669 412.538 721.906 410.52 721.906 408.073C721.906 405.625 722.675 403.627 724.211 402.081C725.757 400.534 727.698 399.761 730.034 399.761C731.058 399.761 731.995 399.909 732.845 400.207C733.705 400.493 734.489 400.949 735.196 401.574C735.902 402.199 736.522 403.105 737.055 404.293L734.212 405.445C733.833 404.708 733.449 404.15 733.06 403.771C732.681 403.392 732.231 403.115 731.708 402.941C731.186 402.757 730.617 402.665 730.003 402.665C728.671 402.665 727.529 403.161 726.577 404.155C725.635 405.148 725.163 406.454 725.163 408.073C725.163 409.681 725.629 411.002 726.562 412.036C727.504 413.06 728.651 413.573 730.003 413.573C730.617 413.573 731.191 413.48 731.724 413.296C732.256 413.101 732.707 412.83 733.076 412.482C733.455 412.134 733.874 411.555 734.335 410.746L737.147 411.898C736.563 413.107 735.933 414.013 735.257 414.617C734.581 415.222 733.803 415.682 732.922 416C732.051 416.328 731.083 416.492 730.018 416.492ZM738.522 416V394H741.825V402.572H741.902C742.363 401.733 743.044 401.057 743.945 400.544C744.857 400.022 745.85 399.761 746.926 399.761C748.739 399.761 750.152 400.304 751.166 401.389C752.18 402.475 752.687 403.945 752.687 405.799V416H749.369V406.444C749.369 405.235 749.066 404.298 748.462 403.633C747.868 402.967 747.008 402.634 745.881 402.634C744.775 402.634 743.822 403.09 743.024 404.001C742.235 404.903 741.841 405.968 741.841 407.197V416H738.522ZM760.003 416.492C758.262 416.492 756.849 416.01 755.763 415.047C754.687 414.074 754.15 412.815 754.15 411.268C754.15 409.67 754.769 408.395 756.009 407.443C757.248 406.49 758.851 406.014 760.817 406.014C761.647 406.014 762.456 406.106 763.245 406.29C764.044 406.475 764.694 406.705 765.196 406.982V406.029C765.196 404.954 764.817 404.093 764.059 403.448C763.311 402.793 762.343 402.465 761.155 402.465C760.49 402.465 759.926 402.542 759.465 402.695C759.015 402.849 758.61 403.044 758.252 403.279C757.903 403.504 757.576 403.776 757.268 404.093C756.961 404.401 756.808 404.554 756.808 404.554L754.687 402.741C754.687 402.741 754.913 402.521 755.363 402.081C755.814 401.64 756.316 401.246 756.869 400.898C757.432 400.55 758.067 400.273 758.774 400.068C759.481 399.863 760.341 399.761 761.355 399.761C763.537 399.761 765.252 400.319 766.502 401.436C767.751 402.542 768.376 404.078 768.376 406.045V416H765.211V412.39L766.148 413.803H765.119C764.628 414.602 763.921 415.252 762.999 415.754C762.087 416.246 761.089 416.492 760.003 416.492ZM760.648 413.911C761.929 413.911 763.004 413.455 763.875 412.543C764.756 411.632 765.196 410.52 765.196 409.209V409.194C764.715 408.887 764.141 408.646 763.475 408.472C762.82 408.298 762.123 408.211 761.386 408.211C760.167 408.211 759.194 408.457 758.467 408.948C757.75 409.44 757.391 410.177 757.391 411.161C757.391 411.99 757.694 412.656 758.298 413.158C758.902 413.66 759.686 413.911 760.648 413.911ZM771.012 416V400.237H774.33V416H771.012ZM772.671 397.38C772.098 397.38 771.606 397.18 771.196 396.78C770.797 396.371 770.597 395.879 770.597 395.306C770.597 394.722 770.797 394.24 771.196 393.861C771.606 393.472 772.098 393.278 772.671 393.278C773.255 393.278 773.741 393.472 774.131 393.861C774.52 394.24 774.714 394.722 774.714 395.306C774.714 395.879 774.52 396.371 774.131 396.78C773.741 397.18 773.255 397.38 772.671 397.38ZM777.084 416V400.237H780.264V403.064L779.834 402.557H780.356C780.828 401.738 781.539 401.067 782.492 400.544C783.444 400.022 784.443 399.761 785.488 399.761C787.301 399.761 788.714 400.299 789.728 401.374C790.742 402.45 791.249 403.924 791.249 405.799V416H787.931V406.444C787.931 405.205 787.634 404.262 787.039 403.617C786.445 402.962 785.559 402.634 784.382 402.634C783.255 402.634 782.308 403.074 781.539 403.955C780.781 404.826 780.403 405.881 780.403 407.12V416H777.084ZM799.318 416.492C798.273 416.492 797.351 416.364 796.552 416.108C795.764 415.862 795.057 415.493 794.432 415.001C793.808 414.51 793.316 413.972 792.957 413.388C792.609 412.794 792.435 412.497 792.435 412.497L794.924 411.022C794.924 411.022 795.062 411.242 795.339 411.683C795.626 412.113 795.969 412.492 796.368 412.82C796.768 413.137 797.213 413.378 797.705 413.542C798.207 413.706 798.801 413.788 799.487 413.788C800.419 413.788 801.161 413.608 801.715 413.25C802.278 412.891 802.56 412.374 802.56 411.698C802.56 411.135 802.329 410.689 801.868 410.362C801.407 410.024 800.393 409.681 798.826 409.332C796.778 408.861 795.303 408.226 794.402 407.427C793.5 406.628 793.05 405.609 793.05 404.37C793.05 403.008 793.639 401.902 794.816 401.051C796.005 400.191 797.464 399.761 799.195 399.761C800.107 399.761 800.921 399.863 801.638 400.068C802.355 400.263 803 400.565 803.574 400.975C804.157 401.384 804.608 401.82 804.926 402.281C805.243 402.741 805.402 402.972 805.402 402.972L803.005 404.447C803.005 404.447 802.882 404.293 802.636 403.986C802.391 403.668 802.094 403.392 801.745 403.156C801.397 402.91 801.003 402.731 800.562 402.619C800.132 402.506 799.661 402.45 799.149 402.45C798.299 402.45 797.602 402.629 797.059 402.987C796.527 403.346 796.261 403.766 796.261 404.247C796.261 404.78 796.476 405.22 796.906 405.568C797.346 405.917 798.401 406.285 800.071 406.674C802.15 407.146 803.62 407.781 804.48 408.58C805.351 409.368 805.786 410.346 805.786 411.514C805.786 413.009 805.182 414.213 803.973 415.124C802.775 416.036 801.223 416.492 799.318 416.492ZM814.464 416.492C812.118 416.492 810.177 415.703 808.641 414.126C807.115 412.538 806.352 410.52 806.352 408.073C806.352 405.625 807.12 403.627 808.656 402.081C810.203 400.534 812.144 399.761 814.479 399.761C815.503 399.761 816.44 399.909 817.291 400.207C818.151 400.493 818.934 400.949 819.641 401.574C820.348 402.199 820.968 403.105 821.5 404.293L818.658 405.445C818.279 404.708 817.895 404.15 817.506 403.771C817.127 403.392 816.676 403.115 816.154 402.941C815.631 402.757 815.063 402.665 814.448 402.665C813.117 402.665 811.975 403.161 811.022 404.155C810.08 405.148 809.609 406.454 809.609 408.073C809.609 409.681 810.075 411.002 811.007 412.036C811.949 413.06 813.096 413.573 814.448 413.573C815.063 413.573 815.636 413.48 816.169 413.296C816.702 413.101 817.152 412.83 817.521 412.482C817.9 412.134 818.32 411.555 818.781 410.746L821.592 411.898C821.009 413.107 820.379 414.013 819.703 414.617C819.027 415.222 818.248 415.682 817.367 416C816.497 416.328 815.529 416.492 814.464 416.492ZM830.342 416.492C827.956 416.492 825.979 415.693 824.412 414.095C822.855 412.497 822.076 410.505 822.076 408.119C822.076 405.691 822.86 403.694 824.427 402.127C825.994 400.55 827.966 399.761 830.342 399.761C832.718 399.761 834.69 400.555 836.257 402.142C837.834 403.72 838.623 405.712 838.623 408.119C838.623 410.505 837.839 412.497 836.272 414.095C834.715 415.693 832.739 416.492 830.342 416.492ZM830.342 413.557C831.755 413.557 832.943 413.05 833.906 412.036C834.869 411.012 835.35 409.706 835.35 408.119C835.35 406.5 834.864 405.189 833.891 404.186C832.918 403.182 831.735 402.68 830.342 402.68C828.939 402.68 827.751 403.187 826.778 404.201C825.815 405.205 825.334 406.511 825.334 408.119C825.334 409.706 825.81 411.012 826.762 412.036C827.725 413.05 828.918 413.557 830.342 413.557ZM840.283 416V400.237H843.447V403.126L843.048 402.726H843.54C843.857 401.866 844.441 401.159 845.291 400.606C846.141 400.043 847.032 399.761 847.964 399.761C848.22 399.761 848.492 399.781 848.778 399.822C849.065 399.863 849.321 399.92 849.547 399.991C849.772 400.063 849.885 400.099 849.885 400.099V403.387C849.885 403.387 849.731 403.341 849.424 403.248C849.127 403.146 848.809 403.069 848.471 403.018C848.133 402.957 847.846 402.926 847.611 402.926C846.494 402.926 845.547 403.356 844.769 404.216C843.99 405.066 843.601 406.132 843.601 407.412V416H840.283ZM857.494 416.492C855.149 416.492 853.223 415.703 851.718 414.126C850.223 412.548 849.475 410.541 849.475 408.103C849.475 405.696 850.217 403.704 851.703 402.127C853.188 400.55 855.067 399.761 857.341 399.761C859.625 399.761 861.468 400.457 862.872 401.85C864.285 403.243 864.992 404.995 864.992 407.105V408.764H851.242V406.536H861.719C861.658 405.389 861.233 404.442 860.444 403.694C859.666 402.936 858.631 402.557 857.341 402.557C855.968 402.557 854.852 403.059 853.992 404.063C853.131 405.056 852.701 406.388 852.701 408.057C852.701 409.788 853.183 411.166 854.145 412.19C855.108 413.214 856.312 413.726 857.756 413.726C858.442 413.726 859.031 413.634 859.522 413.45C860.024 413.255 860.475 412.994 860.874 412.666C861.274 412.328 861.725 411.79 862.226 411.053L864.638 412.466C864.024 413.542 863.379 414.346 862.703 414.878C862.027 415.411 861.279 415.811 860.46 416.077C859.64 416.353 858.652 416.492 857.494 416.492ZM832.088 437V422.135H833.843V437H832.088ZM839.021 437.332C837.845 437.332 836.886 437 836.146 436.336C835.405 435.664 835.035 434.803 835.035 433.751C835.035 432.692 835.45 431.841 836.281 431.197C837.118 430.554 838.191 430.232 839.499 430.232C840.08 430.232 840.651 430.298 841.212 430.429C841.772 430.561 842.212 430.723 842.53 430.917V430.273C842.53 429.491 842.257 428.858 841.71 428.374C841.163 427.889 840.461 427.647 839.603 427.647C839.146 427.647 838.762 427.702 838.45 427.813C838.139 427.917 837.876 428.048 837.662 428.208C837.454 428.36 837.25 428.547 837.049 428.768C836.848 428.983 836.748 429.09 836.748 429.09L835.419 428.093C835.419 428.093 835.551 427.948 835.814 427.657C836.084 427.367 836.388 427.104 836.727 426.869C837.066 426.633 837.457 426.443 837.9 426.298C838.343 426.152 838.914 426.08 839.613 426.08C841.032 426.08 842.153 426.457 842.976 427.211C843.8 427.965 844.212 428.99 844.212 430.284V437H842.53V434.446L843.153 435.464H842.478C842.139 436.024 841.658 436.478 841.035 436.824C840.412 437.163 839.741 437.332 839.021 437.332ZM839.187 435.765C840.108 435.765 840.893 435.439 841.544 434.789C842.201 434.131 842.53 433.339 842.53 432.412C842.184 432.176 841.769 431.993 841.284 431.862C840.8 431.723 840.291 431.654 839.758 431.654C838.859 431.654 838.146 431.834 837.62 432.194C837.094 432.547 836.831 433.076 836.831 433.782C836.831 434.37 837.053 434.848 837.495 435.215C837.945 435.581 838.509 435.765 839.187 435.765ZM851.285 437.332C850.516 437.332 849.797 437.156 849.125 436.803C848.461 436.443 847.963 435.986 847.631 435.433H847.153L847.568 434.913V437H845.897V422.135H847.651V427.99H847.714C848.046 427.422 848.53 426.962 849.167 426.609C849.811 426.256 850.513 426.08 851.274 426.08C852.721 426.08 853.928 426.602 854.897 427.647C855.866 428.685 856.35 430.028 856.35 431.675C856.35 433.315 855.869 434.668 854.907 435.734C853.946 436.799 852.738 437.332 851.285 437.332ZM851.087 435.734C852.077 435.734 852.907 435.353 853.579 434.592C854.257 433.83 854.596 432.858 854.596 431.675C854.596 430.484 854.254 429.519 853.568 428.779C852.89 428.038 852.063 427.668 851.087 427.668C850.119 427.668 849.288 428.038 848.596 428.779C847.911 429.519 847.568 430.481 847.568 431.664C847.568 432.855 847.907 433.83 848.586 434.592C849.271 435.353 850.105 435.734 851.087 435.734ZM861.261 437.332C860.59 437.332 859.991 437.246 859.465 437.073C858.946 436.9 858.479 436.637 858.064 436.284C857.649 435.931 857.334 435.543 857.119 435.121C856.912 434.699 856.808 434.488 856.808 434.488L858.375 433.772C858.375 433.772 858.465 433.931 858.645 434.249C858.825 434.561 859.047 434.834 859.31 435.069C859.58 435.304 859.877 435.481 860.202 435.599C860.528 435.716 860.922 435.775 861.386 435.775C862.078 435.775 862.631 435.64 863.047 435.37C863.469 435.093 863.68 434.692 863.68 434.166C863.68 433.744 863.51 433.408 863.171 433.159C862.839 432.903 862.147 432.657 861.095 432.422C859.711 432.111 858.711 431.689 858.095 431.156C857.486 430.616 857.182 429.927 857.182 429.09C857.182 428.225 857.569 427.509 858.344 426.941C859.119 426.367 860.061 426.08 861.168 426.08C861.763 426.08 862.292 426.149 862.756 426.287C863.227 426.426 863.659 426.644 864.054 426.941C864.448 427.239 864.735 427.55 864.915 427.875C865.095 428.201 865.185 428.363 865.185 428.363L863.649 429.069C863.649 429.069 863.569 428.955 863.41 428.727C863.258 428.498 863.071 428.301 862.849 428.135C862.628 427.962 862.372 427.837 862.081 427.761C861.798 427.685 861.476 427.647 861.116 427.647C860.486 427.647 859.967 427.785 859.559 428.062C859.157 428.339 858.957 428.661 858.957 429.028C858.957 429.415 859.106 429.747 859.403 430.024C859.701 430.294 860.434 430.564 861.604 430.834C863.036 431.159 864.036 431.592 864.604 432.131C865.171 432.664 865.455 433.301 865.455 434.042C865.455 435.031 865.061 435.827 864.272 436.429C863.483 437.031 862.479 437.332 861.261 437.332Z" fill="white"/>
<path d="M32.8908 451.211C31.883 451.211 31.0693 450.882 30.4498 450.226C29.8302 449.565 29.5204 448.732 29.5204 447.729C29.5204 446.733 29.8302 445.909 30.4498 445.257C31.0693 444.604 31.8871 444.278 32.9032 444.278C33.2584 444.278 33.5847 444.321 33.8821 444.408C34.1836 444.495 34.4603 444.629 34.7123 444.811C34.9684 444.988 35.2389 445.259 35.5239 445.622L34.6751 446.285C34.4686 446.029 34.2827 445.839 34.1175 445.715C33.9523 445.587 33.7664 445.494 33.5599 445.436C33.3534 445.374 33.1242 445.343 32.8722 445.343C32.2568 445.343 31.7405 445.562 31.3233 446C30.9103 446.438 30.7038 447.014 30.7038 447.729C30.7038 448.439 30.9124 449.019 31.3295 449.47C31.7467 449.92 32.2589 450.145 32.866 450.145C33.1304 450.145 33.372 450.112 33.5909 450.046C33.8139 449.98 34.0081 449.885 34.1733 449.761C34.3426 449.637 34.5388 449.426 34.7619 449.129L35.654 449.755C35.3649 450.159 35.0902 450.457 34.83 450.647C34.5698 450.833 34.2745 450.973 33.944 451.068C33.6136 451.163 33.2625 451.211 32.8908 451.211ZM36.9176 451V441.936H38.0886V445.393H38.1258C38.324 445.079 38.6111 444.817 38.9869 444.606C39.3628 444.391 39.8047 444.284 40.3128 444.284C41.0769 444.284 41.6634 444.495 42.0723 444.916C42.4854 445.337 42.6919 445.92 42.6919 446.663V451H41.5209V446.899C41.5209 446.366 41.3887 445.967 41.1244 445.703C40.8642 445.438 40.4801 445.306 39.972 445.306C39.4309 445.306 38.9807 445.498 38.6214 445.882C38.2662 446.262 38.0886 446.711 38.0886 447.227V451H36.9176ZM46.4814 451.204C45.771 451.204 45.1886 451.006 44.7343 450.61C44.2799 450.209 44.0528 449.666 44.0528 448.98C44.0528 448.299 44.3026 447.758 44.8024 447.357C45.3022 446.956 45.9486 446.756 46.7416 446.756C47.1299 446.756 47.4892 446.801 47.8197 446.892C48.1542 446.979 48.4392 447.095 48.6746 447.239V446.818C48.6746 446.339 48.5136 445.969 48.1914 445.709C47.8692 445.445 47.4562 445.312 46.9523 445.312C46.6838 445.312 46.4504 445.343 46.2522 445.405C46.0539 445.467 45.8846 445.542 45.7441 445.628C45.6078 445.711 45.4612 445.818 45.3043 445.951C45.1514 446.079 45.075 446.143 45.075 446.143L44.3378 445.43C44.3378 445.43 44.4245 445.35 44.598 445.189C44.7756 445.023 44.98 444.871 45.2113 444.73C45.4468 444.59 45.7028 444.48 45.9796 444.402C46.2604 444.319 46.6074 444.278 47.0204 444.278C47.8589 444.278 48.5342 444.505 49.0464 444.959C49.5627 445.41 49.8208 446.029 49.8208 446.818V451H48.7056V449.662L48.9782 450.108H48.6684C48.4784 450.409 48.1914 450.668 47.8073 450.882C47.4231 451.097 46.9812 451.204 46.4814 451.204ZM46.6921 450.226C47.2373 450.226 47.7061 450.031 48.0985 449.643C48.4908 449.251 48.687 448.79 48.687 448.262V448.231C48.4764 448.049 48.2162 447.908 47.9064 447.809C47.5966 447.71 47.2765 447.661 46.9461 447.661C46.4174 447.661 46.0023 447.774 45.7008 448.001C45.3993 448.229 45.2485 448.549 45.2485 448.962C45.2485 449.35 45.3786 449.658 45.6388 449.885C45.899 450.112 46.2501 450.226 46.6921 450.226ZM51.6633 451V444.488H52.8343V451H51.6633ZM52.2581 443.175C52.0474 443.175 51.8636 443.099 51.7067 442.946C51.5539 442.793 51.4774 442.611 51.4774 442.401C51.4774 442.182 51.5539 442 51.7067 441.855C51.8636 441.711 52.0474 441.639 52.2581 441.639C52.4811 441.639 52.6649 441.711 52.8095 441.855C52.954 442 53.0263 442.182 53.0263 442.401C53.0263 442.611 52.954 442.793 52.8095 442.946C52.6649 443.099 52.4811 443.175 52.2581 443.175ZM54.754 451V444.488H55.8692V445.628L55.7019 445.418H55.9064C56.1129 445.087 56.4124 444.817 56.8047 444.606C57.2013 444.391 57.6411 444.284 58.1244 444.284C58.8968 444.284 59.4895 444.495 59.9025 444.916C60.3197 445.337 60.5283 445.922 60.5283 446.669V451H59.3573V446.905C59.3573 446.388 59.2313 445.994 58.9794 445.721C58.7316 445.445 58.3371 445.306 57.796 445.306C57.2591 445.306 56.813 445.49 56.4578 445.858C56.1026 446.225 55.925 446.68 55.925 447.221V451H54.754ZM64.5161 451.211C64.0783 451.211 63.6962 451.151 63.3699 451.031C63.0436 450.915 62.7586 450.75 62.5149 450.535C62.2712 450.316 62.0874 450.091 61.9635 449.86C61.8437 449.625 61.7838 449.507 61.7838 449.507L62.7194 449.024C62.7194 449.024 62.771 449.112 62.8743 449.29C62.9816 449.468 63.1117 449.629 63.2646 449.773C63.4215 449.914 63.6053 450.023 63.816 450.102C64.0266 450.176 64.2724 450.213 64.5532 450.213C64.9663 450.213 65.2988 450.128 65.5507 449.959C65.8027 449.79 65.9287 449.556 65.9287 449.259C65.9287 448.978 65.8171 448.759 65.5941 448.602C65.3711 448.441 64.9642 448.29 64.3736 448.15C63.5103 447.939 62.9073 447.679 62.5645 447.369C62.2258 447.056 62.0564 446.638 62.0564 446.118C62.0564 445.581 62.2836 445.141 62.738 444.798C63.1923 444.451 63.7623 444.278 64.4479 444.278C64.8114 444.278 65.1315 444.319 65.4082 444.402C65.685 444.484 65.9369 444.608 66.1641 444.773C66.3954 444.935 66.5709 445.104 66.6907 445.282C66.8105 445.459 66.8704 445.548 66.8704 445.548L65.9844 446.068C65.9844 446.068 65.9349 446.006 65.8357 445.882C65.7366 445.754 65.6189 445.645 65.4826 445.554C65.3504 445.463 65.1996 445.395 65.0303 445.35C64.8651 445.304 64.6689 445.282 64.4417 445.282C64.0576 445.282 63.7499 445.36 63.5186 445.517C63.2873 445.674 63.1716 445.864 63.1716 446.087C63.1716 446.293 63.2522 446.475 63.4133 446.632C63.5785 446.785 64.0514 446.965 64.832 447.171C65.6416 447.378 66.2157 447.642 66.5544 447.964C66.8931 448.282 67.0624 448.687 67.0624 449.179C67.0624 449.79 66.8229 450.281 66.3438 450.653C65.8646 451.025 65.2554 451.211 64.5161 451.211ZM71.3952 451.211C70.3874 451.211 69.5737 450.882 68.9541 450.226C68.3346 449.565 68.0248 448.732 68.0248 447.729C68.0248 446.733 68.3346 445.909 68.9541 445.257C69.5737 444.604 70.3915 444.278 71.4076 444.278C71.7628 444.278 72.0891 444.321 72.3864 444.408C72.688 444.495 72.9647 444.629 73.2167 444.811C73.4727 444.988 73.7433 445.259 74.0283 445.622L73.1795 446.285C72.973 446.029 72.7871 445.839 72.6219 445.715C72.4567 445.587 72.2708 445.494 72.0643 445.436C71.8578 445.374 71.6285 445.343 71.3766 445.343C70.7611 445.343 70.2449 445.562 69.8277 446C69.4147 446.438 69.2081 447.014 69.2081 447.729C69.2081 448.439 69.4167 449.019 69.8339 449.47C70.251 449.92 70.7632 450.145 71.3704 450.145C71.6347 450.145 71.8763 450.112 72.0953 450.046C72.3183 449.98 72.5124 449.885 72.6776 449.761C72.847 449.637 73.0432 449.426 73.2662 449.129L74.1584 449.755C73.8692 450.159 73.5946 450.457 73.3344 450.647C73.0742 450.833 72.7788 450.973 72.4484 451.068C72.118 451.163 71.7669 451.211 71.3952 451.211ZM78.4454 451.204C77.4293 451.204 76.6012 450.876 75.961 450.219C75.3249 449.563 75.0069 448.739 75.0069 447.747C75.0069 446.744 75.329 445.916 75.9734 445.263C76.6218 444.61 77.4459 444.284 78.4454 444.284C79.4491 444.284 80.2731 444.617 80.9174 445.282C81.5659 445.942 81.8901 446.764 81.8901 447.747C81.8901 448.73 81.5721 449.552 80.936 450.213C80.2999 450.874 79.4697 451.204 78.4454 451.204ZM78.4454 450.145C79.0939 450.145 79.6308 449.924 80.0562 449.482C80.4858 449.036 80.7006 448.458 80.7006 447.747C80.7006 447.041 80.4858 446.465 80.0562 446.019C79.6308 445.569 79.0939 445.343 78.4454 445.343C77.7969 445.343 77.26 445.567 76.8346 446.013C76.4091 446.455 76.1964 447.033 76.1964 447.747C76.1964 448.462 76.4071 449.04 76.8284 449.482C77.2538 449.924 77.7928 450.145 78.4454 450.145ZM83.3479 451V444.488H84.4507V445.628L84.3144 445.505H84.4879C84.6201 445.153 84.8576 444.862 85.2004 444.631C85.5432 444.396 85.9149 444.278 86.3156 444.278C86.4395 444.278 86.5696 444.29 86.7059 444.315C86.8422 444.34 86.9702 444.377 87.09 444.427C87.2098 444.472 87.2697 444.495 87.2697 444.495L87.0962 445.616C87.0962 445.616 87.0363 445.593 86.9166 445.548C86.8009 445.502 86.6791 445.467 86.551 445.443C86.4271 445.418 86.3177 445.405 86.2227 445.405C85.7435 445.405 85.3388 445.591 85.0083 445.963C84.682 446.331 84.5189 446.828 84.5189 447.456V451H83.3479ZM91.0461 451.204C90.0548 451.204 89.2494 450.884 88.6298 450.244C88.0103 449.604 87.7005 448.772 87.7005 447.747C87.7005 446.773 87.9999 445.953 88.5988 445.288C89.2019 444.619 89.997 444.284 90.9841 444.284C91.9217 444.284 92.6714 444.569 93.2331 445.139C93.799 445.709 94.0819 446.428 94.0819 447.295V448.039H88.3696V447.115H92.9109V447.109C92.8862 446.605 92.7044 446.18 92.3657 445.833C92.0312 445.486 91.5706 445.312 90.9841 445.312C90.3687 445.312 89.8627 445.531 89.4662 445.969C89.0738 446.403 88.8776 446.994 88.8776 447.741C88.8776 448.518 89.0862 449.117 89.5034 449.538C89.9247 449.955 90.4575 450.164 91.1018 450.164C91.391 450.164 91.6429 450.128 91.8577 450.058C92.0725 449.988 92.2707 449.887 92.4525 449.755C92.6383 449.623 92.8469 449.416 93.0782 449.135L93.9208 449.718C93.6689 450.11 93.4066 450.403 93.134 450.597C92.8655 450.791 92.5681 450.94 92.2418 451.043C91.9197 451.151 91.5211 451.204 91.0461 451.204ZM95.5696 451V441.936H96.7406V451H95.5696ZM100.596 451.204C99.8852 451.204 99.3028 451.006 98.8485 450.61C98.3942 450.209 98.167 449.666 98.167 448.98C98.167 448.299 98.4169 447.758 98.9167 447.357C99.4164 446.956 100.063 446.756 100.856 446.756C101.244 446.756 101.603 446.801 101.934 446.892C102.268 446.979 102.553 447.095 102.789 447.239V446.818C102.789 446.339 102.628 445.969 102.306 445.709C101.983 445.445 101.57 445.312 101.067 445.312C100.798 445.312 100.565 445.343 100.366 445.405C100.168 445.467 99.9988 445.542 99.8584 445.628C99.7221 445.711 99.5754 445.818 99.4185 445.951C99.2657 446.079 99.1893 446.143 99.1893 446.143L98.452 445.43C98.452 445.43 98.5387 445.35 98.7122 445.189C98.8898 445.023 99.0943 444.871 99.3256 444.73C99.561 444.59 99.8171 444.48 100.094 444.402C100.375 444.319 100.722 444.278 101.135 444.278C101.973 444.278 102.648 444.505 103.161 444.959C103.677 445.41 103.935 446.029 103.935 446.818V451H102.82V449.662L103.092 450.108H102.783C102.593 450.409 102.306 450.668 101.921 450.882C101.537 451.097 101.095 451.204 100.596 451.204ZM100.806 450.226C101.352 450.226 101.82 450.031 102.213 449.643C102.605 449.251 102.801 448.79 102.801 448.262V448.231C102.591 448.049 102.33 447.908 102.021 447.809C101.711 447.71 101.391 447.661 101.06 447.661C100.532 447.661 100.117 447.774 99.815 448.001C99.5135 448.229 99.3627 448.549 99.3627 448.962C99.3627 449.35 99.4928 449.658 99.7531 449.885C100.013 450.112 100.364 450.226 100.806 450.226ZM109.173 451.204C108.665 451.204 108.214 451.097 107.822 450.882C107.43 450.668 107.124 450.397 106.905 450.071H106.62L106.868 449.761V451H105.734V441.936H106.905V445.498H106.942C107.141 445.16 107.44 444.873 107.841 444.637C108.245 444.402 108.712 444.284 109.241 444.284C110.112 444.284 110.845 444.6 111.44 445.232C112.035 445.86 112.332 446.698 112.332 447.747C112.332 448.772 112.031 449.604 111.428 450.244C110.825 450.884 110.073 451.204 109.173 451.204ZM108.993 450.201C109.617 450.201 110.131 449.976 110.536 449.525C110.94 449.071 111.143 448.478 111.143 447.747C111.143 447.012 110.938 446.419 110.53 445.969C110.125 445.519 109.613 445.294 108.993 445.294C108.402 445.294 107.896 445.519 107.475 445.969C107.058 446.419 106.849 447.016 106.849 447.76C106.849 448.495 107.054 449.086 107.463 449.532C107.872 449.978 108.382 450.201 108.993 450.201ZM115.98 451.211C115.542 451.211 115.16 451.151 114.834 451.031C114.508 450.915 114.223 450.75 113.979 450.535C113.735 450.316 113.552 450.091 113.428 449.86C113.308 449.625 113.248 449.507 113.248 449.507L114.184 449.024C114.184 449.024 114.235 449.112 114.338 449.29C114.446 449.468 114.576 449.629 114.729 449.773C114.886 449.914 115.07 450.023 115.28 450.102C115.491 450.176 115.737 450.213 116.017 450.213C116.43 450.213 116.763 450.128 117.015 449.959C117.267 449.79 117.393 449.556 117.393 449.259C117.393 448.978 117.281 448.759 117.058 448.602C116.835 448.441 116.428 448.29 115.838 448.15C114.975 447.939 114.371 447.679 114.029 447.369C113.69 447.056 113.521 446.638 113.521 446.118C113.521 445.581 113.748 445.141 114.202 444.798C114.656 444.451 115.226 444.278 115.912 444.278C116.276 444.278 116.596 444.319 116.872 444.402C117.149 444.484 117.401 444.608 117.628 444.773C117.86 444.935 118.035 445.104 118.155 445.282C118.275 445.459 118.335 445.548 118.335 445.548L117.449 446.068C117.449 446.068 117.399 446.006 117.3 445.882C117.201 445.754 117.083 445.645 116.947 445.554C116.815 445.463 116.664 445.395 116.494 445.35C116.329 445.304 116.133 445.282 115.906 445.282C115.522 445.282 115.214 445.36 114.983 445.517C114.751 445.674 114.636 445.864 114.636 446.087C114.636 446.293 114.716 446.475 114.877 446.632C115.043 446.785 115.516 446.965 116.296 447.171C117.106 447.378 117.68 447.642 118.019 447.964C118.357 448.282 118.527 448.687 118.527 449.179C118.527 449.79 118.287 450.281 117.808 450.653C117.329 451.025 116.72 451.211 115.98 451.211ZM120.679 451.074C120.427 451.074 120.214 450.988 120.04 450.814C119.867 450.637 119.78 450.42 119.78 450.164C119.78 449.92 119.867 449.711 120.04 449.538C120.214 449.364 120.427 449.278 120.679 449.278C120.939 449.278 121.156 449.364 121.329 449.538C121.503 449.711 121.589 449.92 121.589 450.164C121.589 450.42 121.503 450.637 121.329 450.814C121.156 450.988 120.939 451.074 120.679 451.074ZM126.114 451.211C125.107 451.211 124.293 450.882 123.673 450.226C123.054 449.565 122.744 448.732 122.744 447.729C122.744 446.733 123.054 445.909 123.673 445.257C124.293 444.604 125.111 444.278 126.127 444.278C126.482 444.278 126.808 444.321 127.106 444.408C127.407 444.495 127.684 444.629 127.936 444.811C128.192 444.988 128.463 445.259 128.748 445.622L127.899 446.285C127.692 446.029 127.506 445.839 127.341 445.715C127.176 445.587 126.99 445.494 126.784 445.436C126.577 445.374 126.348 445.343 126.096 445.343C125.48 445.343 124.964 445.562 124.547 446C124.134 446.438 123.927 447.014 123.927 447.729C123.927 448.439 124.136 449.019 124.553 449.47C124.97 449.92 125.482 450.145 126.09 450.145C126.354 450.145 126.596 450.112 126.815 450.046C127.038 449.98 127.232 449.885 127.397 449.761C127.566 449.637 127.762 449.426 127.985 449.129L128.878 449.755C128.589 450.159 128.314 450.457 128.054 450.647C127.793 450.833 127.498 450.973 127.168 451.068C126.837 451.163 126.486 451.211 126.114 451.211ZM133.165 451.204C132.149 451.204 131.32 450.876 130.68 450.219C130.044 449.563 129.726 448.739 129.726 447.747C129.726 446.744 130.048 445.916 130.693 445.263C131.341 444.61 132.165 444.284 133.165 444.284C134.168 444.284 134.992 444.617 135.637 445.282C136.285 445.942 136.609 446.764 136.609 447.747C136.609 448.73 136.291 449.552 135.655 450.213C135.019 450.874 134.189 451.204 133.165 451.204ZM133.165 450.145C133.813 450.145 134.35 449.924 134.776 449.482C135.205 449.036 135.42 448.458 135.42 447.747C135.42 447.041 135.205 446.465 134.776 446.019C134.35 445.569 133.813 445.343 133.165 445.343C132.516 445.343 131.979 445.567 131.554 446.013C131.128 446.455 130.916 447.033 130.916 447.747C130.916 448.462 131.126 449.04 131.548 449.482C131.973 449.924 132.512 450.145 133.165 450.145ZM138.067 451V444.495H139.182V445.567L139.077 445.412H139.22C139.43 445.081 139.726 444.811 140.106 444.6C140.486 444.389 140.896 444.284 141.338 444.284C141.846 444.284 142.28 444.398 142.64 444.625C142.999 444.848 143.247 445.17 143.383 445.591C143.602 445.182 143.914 444.862 144.318 444.631C144.723 444.4 145.176 444.284 145.675 444.284C146.419 444.284 146.985 444.495 147.373 444.916C147.761 445.337 147.955 445.926 147.955 446.682V451H146.784V446.905C146.784 446.368 146.66 445.969 146.413 445.709C146.169 445.445 145.803 445.312 145.316 445.312C144.841 445.312 144.434 445.494 144.095 445.858C143.761 446.217 143.594 446.678 143.594 447.239V451H142.423V446.905C142.423 446.355 142.297 445.953 142.045 445.697C141.793 445.436 141.429 445.306 140.954 445.306C140.479 445.306 140.075 445.494 139.74 445.87C139.405 446.242 139.238 446.688 139.238 447.208V451H138.067Z" fill="white" fill-opacity="0.6"/>
<path d="M31.192 80.656H59.992C72.024 80.656 80.9413 84.496 86.744 92.176C92.5467 99.856 95.448 110.907 95.448 125.328C95.448 139.749 92.5467 150.8 86.744 158.48C80.9413 166.16 72.024 170 59.992 170H31.192V80.656ZM58.712 154.896C64.4293 154.896 68.6107 153.061 71.256 149.392C73.9013 145.723 75.224 140.389 75.224 133.392V117.136C75.224 110.224 73.9013 104.933 71.256 101.264C68.6107 97.5947 64.4293 95.76 58.712 95.76H50.136V154.896H58.712ZM138.15 171.536C126.203 171.536 117.371 167.483 111.654 159.376C106.022 151.269 103.206 139.92 103.206 125.328C103.206 110.736 106.022 99.3867 111.654 91.28C117.371 83.1733 126.203 79.12 138.15 79.12C150.097 79.12 158.886 83.1733 164.518 91.28C170.235 99.3867 173.094 110.736 173.094 125.328C173.094 139.92 170.235 151.269 164.518 159.376C158.886 167.483 150.097 171.536 138.15 171.536ZM138.15 156.048C143.611 156.048 147.366 154.043 149.414 150.032C151.547 145.936 152.614 140.261 152.614 133.008V117.52C152.614 110.352 151.547 104.763 149.414 100.752C147.366 96.656 143.611 94.608 138.15 94.608C132.689 94.608 128.891 96.656 126.758 100.752C124.71 104.763 123.686 110.352 123.686 117.52V133.136C123.686 140.304 124.71 145.936 126.758 150.032C128.891 154.043 132.689 156.048 138.15 156.048ZM224.5 96.4V170H205.3V96.4H179.572V80.656H250.228V96.4H224.5ZM281.922 170H262.978V80.656H297.538C301.89 80.656 305.773 81.3387 309.186 82.704C312.599 83.984 315.458 85.8613 317.762 88.336C320.151 90.8107 321.943 93.7973 323.138 97.296C324.333 100.795 324.93 104.72 324.93 109.072C324.93 115.387 323.565 120.805 320.834 125.328C318.103 129.851 314.221 132.837 309.186 134.288L326.722 170H305.73L290.754 136.848H281.922V170ZM292.93 122C297.453 122 300.567 121.147 302.274 119.44C304.066 117.733 304.962 114.917 304.962 110.992V107.152C304.962 103.227 304.066 100.411 302.274 98.704C300.567 96.9973 297.453 96.144 292.93 96.144H281.922V122H292.93ZM339.6 170V155.792H358.8V94.864H339.6V80.656H397.2V94.864H378V155.792H397.2V170H339.6ZM432.35 110.608H430.942V170H414.558V80.656H437.598L457.95 140.048H459.358V80.656H475.742V170H452.702L432.35 110.608ZM536.108 157.328H534.956C534.188 159.205 533.249 160.997 532.14 162.704C531.031 164.411 529.665 165.947 528.044 167.312C526.423 168.592 524.503 169.616 522.284 170.384C520.151 171.152 517.719 171.536 514.988 171.536C510.636 171.536 506.753 170.512 503.34 168.464C500.012 166.416 497.196 163.429 494.892 159.504C492.588 155.579 490.839 150.8 489.644 145.168C488.535 139.536 487.98 133.179 487.98 126.096C487.98 110.907 490.753 99.3013 496.3 91.28C501.847 83.1733 510.423 79.12 522.028 79.12C526.636 79.12 530.689 79.76 534.188 81.04C537.687 82.2347 540.673 83.984 543.148 86.288C545.708 88.5067 547.799 91.1947 549.42 94.352C551.041 97.5093 552.321 101.008 553.26 104.848L535.34 109.2C534.828 107.323 534.231 105.531 533.548 103.824C532.951 102.032 532.14 100.453 531.116 99.088C530.092 97.7227 528.812 96.656 527.276 95.888C525.74 95.0347 523.863 94.608 521.644 94.608C516.78 94.608 513.324 96.6133 511.276 100.624C509.313 104.635 508.332 110.267 508.332 117.52V132.112C508.332 139.365 509.399 145.168 511.532 149.52C513.751 153.872 517.633 156.048 523.18 156.048C527.532 156.048 530.775 154.768 532.908 152.208C535.041 149.648 536.108 146.363 536.108 142.352V135.824H520.876V122.256H553.26V170H536.108V157.328Z" fill="white"/>
<path d="M30.86 372V354.816H36.896C38.6 354.816 39.976 355.336 41.024 356.376C42.072 357.408 42.596 358.776 42.596 360.48C42.596 362.168 42.052 363.504 40.964 364.488C39.884 365.472 38.496 365.964 36.8 365.964H32.276V363.648H36.728C37.696 363.648 38.476 363.36 39.068 362.784C39.66 362.208 39.956 361.448 39.956 360.504C39.956 359.536 39.668 358.748 39.092 358.14C38.516 357.532 37.76 357.228 36.824 357.228H33.476V372H30.86ZM45.6969 377.172C45.6969 377.172 45.6929 377.172 45.6849 377.172C45.6849 377.172 45.6889 377.172 45.6969 377.172L48.7689 370.464L48.8289 372.012L43.3809 359.712H46.1289L49.3929 367.464L49.7049 368.412H49.7769L50.1249 367.44L53.2089 359.712C53.2009 359.712 53.1969 359.712 53.1969 359.712C53.2049 359.712 53.2089 359.712 53.2089 359.712H55.9089L48.4089 377.172H45.6969ZM62.2514 372.384C61.1554 372.384 60.2794 372.068 59.6234 371.436C58.9674 370.796 58.6394 369.892 58.6394 368.724V356.304H61.2314V368.232C61.2314 368.888 61.3634 369.372 61.6274 369.684C61.8914 369.996 62.2834 370.152 62.8034 370.152C62.9394 370.152 63.0874 370.14 63.2474 370.116C63.4154 370.084 63.6234 370.028 63.8714 369.948C64.1194 369.868 64.2434 369.828 64.2434 369.828V372.036C64.2434 372.036 64.1154 372.072 63.8594 372.144C63.6114 372.224 63.3634 372.284 63.1154 372.324C62.8674 372.364 62.5794 372.384 62.2514 372.384ZM56.5994 361.884V359.712H64.2194V361.884H56.5994ZM66.6052 372V354.816H69.1852V361.524H69.2572C69.6092 360.868 70.1372 360.34 70.8412 359.94C71.5532 359.532 72.3292 359.328 73.1692 359.328C74.5932 359.328 75.7012 359.752 76.4932 360.6C77.2852 361.44 77.6812 362.588 77.6812 364.044V372H75.0772V364.548C75.0772 363.596 74.8412 362.864 74.3692 362.352C73.8972 361.832 73.2252 361.572 72.3532 361.572C71.4892 361.572 70.7492 361.928 70.1332 362.64C69.5172 363.352 69.2092 364.188 69.2092 365.148V372H66.6052ZM86.2871 372.384C84.4231 372.384 82.8791 371.764 81.6551 370.524C80.4391 369.284 79.8311 367.724 79.8311 365.844C79.8311 363.948 80.4431 362.388 81.6671 361.164C82.8911 359.94 84.4311 359.328 86.2871 359.328C88.1351 359.328 89.6711 359.944 90.8951 361.176C92.1271 362.408 92.7431 363.964 92.7431 365.844C92.7431 367.724 92.1351 369.284 90.9191 370.524C89.7031 371.764 88.1591 372.384 86.2871 372.384ZM86.2871 370.104C87.3831 370.104 88.3031 369.708 89.0471 368.916C89.7991 368.116 90.1751 367.092 90.1751 365.844C90.1751 364.58 89.7991 363.56 89.0471 362.784C88.2951 362 87.3751 361.608 86.2871 361.608C85.1831 361.608 84.2551 362 83.5031 362.784C82.7591 363.568 82.3871 364.588 82.3871 365.844C82.3871 367.092 82.7591 368.116 83.5031 368.916C84.2471 369.708 85.1751 370.104 86.2871 370.104ZM95.0114 372V359.712H97.4954V361.908L97.1594 361.512H97.5674C97.9354 360.872 98.4914 360.348 99.2354 359.94C99.9874 359.532 100.767 359.328 101.575 359.328C102.991 359.328 104.095 359.748 104.887 360.588C105.687 361.42 106.087 362.572 106.087 364.044V372H103.483V364.548C103.483 363.572 103.247 362.832 102.775 362.328C102.311 361.824 101.619 361.572 100.699 361.572C99.8274 361.572 99.0954 361.916 98.5034 362.604C97.9114 363.292 97.6154 364.12 97.6154 365.088V372H95.0114ZM114.301 372V354.816H116.905V372H114.301ZM120.035 372V359.712H122.639V372H120.035ZM121.343 357.42C120.895 357.42 120.511 357.264 120.191 356.952C119.879 356.632 119.723 356.248 119.723 355.8C119.723 355.344 119.879 354.964 120.191 354.66C120.511 354.356 120.895 354.204 121.343 354.204C121.807 354.204 122.187 354.356 122.483 354.66C122.787 354.964 122.939 355.344 122.939 355.8C122.939 356.248 122.787 356.632 122.483 356.952C122.187 357.264 121.807 357.42 121.343 357.42ZM132.469 372.384C131.589 372.384 130.773 372.188 130.021 371.796C129.277 371.404 128.705 370.896 128.305 370.272H127.645L128.245 369.576V372H125.761V354.816H128.365V361.392L128.425 361.404C128.817 360.78 129.377 360.28 130.105 359.904C130.833 359.52 131.625 359.328 132.481 359.328C134.145 359.328 135.533 359.928 136.645 361.128C137.757 362.328 138.313 363.892 138.313 365.82C138.313 367.724 137.757 369.296 136.645 370.536C135.541 371.768 134.149 372.384 132.469 372.384ZM132.013 370.116C133.069 370.116 133.953 369.716 134.665 368.916C135.385 368.116 135.745 367.088 135.745 365.832C135.745 364.576 135.381 363.556 134.653 362.772C133.933 361.988 133.053 361.596 132.013 361.596C130.973 361.596 130.089 361.988 129.361 362.772C128.633 363.548 128.269 364.564 128.269 365.82C128.269 367.076 128.629 368.108 129.349 368.916C130.069 369.716 130.957 370.116 132.013 370.116ZM140.597 372V359.712H143.081V361.968L142.745 361.656H143.153C143.385 360.984 143.833 360.428 144.497 359.988C145.169 359.548 145.869 359.328 146.597 359.328C146.813 359.328 147.033 359.344 147.257 359.376C147.481 359.408 147.681 359.452 147.857 359.508C148.041 359.564 148.133 359.592 148.133 359.592V362.172C148.133 362.172 148.009 362.136 147.761 362.064C147.521 361.984 147.265 361.924 146.993 361.884C146.729 361.836 146.505 361.812 146.321 361.812C145.441 361.812 144.701 362.148 144.101 362.82C143.501 363.484 143.201 364.312 143.201 365.304V372H140.597ZM153.449 372.384C152.089 372.384 150.989 372.008 150.149 371.256C149.309 370.496 148.889 369.512 148.889 368.304C148.889 367.064 149.369 366.072 150.329 365.328C151.297 364.584 152.549 364.212 154.085 364.212C154.741 364.212 155.377 364.284 155.993 364.428C156.609 364.564 157.109 364.74 157.493 364.956V364.224C157.493 363.384 157.201 362.712 156.617 362.208C156.033 361.696 155.273 361.44 154.337 361.44C153.817 361.44 153.377 361.5 153.017 361.62C152.665 361.74 152.349 361.892 152.069 362.076C151.797 362.252 151.541 362.46 151.301 362.7C151.069 362.94 150.953 363.06 150.953 363.06L149.309 361.632C149.309 361.632 149.485 361.464 149.837 361.128C150.189 360.784 150.581 360.48 151.013 360.216C151.445 359.944 151.933 359.728 152.477 359.568C153.029 359.408 153.697 359.328 154.481 359.328C156.201 359.328 157.549 359.764 158.525 360.636C159.501 361.5 159.989 362.7 159.989 364.236V372H157.505V369.168L158.249 370.308H157.433C157.057 370.924 156.509 371.424 155.789 371.808C155.077 372.192 154.297 372.384 153.449 372.384ZM153.953 370.368C154.945 370.368 155.781 370.016 156.461 369.312C157.149 368.608 157.493 367.736 157.493 366.696V366.684C157.125 366.444 156.681 366.256 156.161 366.12C155.649 365.984 155.109 365.916 154.541 365.916C153.589 365.916 152.829 366.108 152.261 366.492C151.701 366.876 151.421 367.456 151.421 368.232C151.421 368.88 151.657 369.4 152.129 369.792C152.601 370.176 153.209 370.368 153.953 370.368ZM162.84 372V359.712H165.324V361.968L164.988 361.656H165.396C165.628 360.984 166.076 360.428 166.74 359.988C167.412 359.548 168.112 359.328 168.84 359.328C169.056 359.328 169.276 359.344 169.5 359.376C169.724 359.408 169.924 359.452 170.1 359.508C170.284 359.564 170.376 359.592 170.376 359.592V362.172C170.376 362.172 170.252 362.136 170.004 362.064C169.764 361.984 169.508 361.924 169.236 361.884C168.972 361.836 168.748 361.812 168.564 361.812C167.684 361.812 166.944 362.148 166.344 362.82C165.744 363.484 165.444 364.312 165.444 365.304V372H162.84ZM173.22 377.172C173.22 377.172 173.216 377.172 173.208 377.172C173.208 377.172 173.212 377.172 173.22 377.172L176.292 370.464L176.352 372.012L170.904 359.712H173.652L176.916 367.464L177.228 368.412H177.3L177.648 367.44L180.732 359.712C180.724 359.712 180.72 359.712 180.72 359.712C180.728 359.712 180.732 359.712 180.732 359.712H183.432L175.932 377.172H173.22ZM189.503 361.884V359.712H197.183V361.884H189.503ZM191.615 372V358.38C191.615 357.196 191.991 356.244 192.743 355.524C193.495 354.796 194.479 354.432 195.695 354.432C195.999 354.432 196.279 354.452 196.535 354.492C196.799 354.524 197.047 354.568 197.279 354.624C197.519 354.68 197.639 354.708 197.639 354.708V356.928C197.639 356.928 197.539 356.904 197.339 356.856C197.147 356.808 196.939 356.768 196.715 356.736C196.499 356.704 196.263 356.688 196.007 356.688C195.487 356.688 195.059 356.844 194.723 357.156C194.387 357.468 194.219 357.92 194.219 358.512V360.348V360.828V372H191.615ZM204.459 372.384C202.595 372.384 201.051 371.764 199.827 370.524C198.611 369.284 198.003 367.724 198.003 365.844C198.003 363.948 198.615 362.388 199.839 361.164C201.063 359.94 202.603 359.328 204.459 359.328C206.307 359.328 207.843 359.944 209.067 361.176C210.299 362.408 210.915 363.964 210.915 365.844C210.915 367.724 210.307 369.284 209.091 370.524C207.875 371.764 206.331 372.384 204.459 372.384ZM204.459 370.104C205.555 370.104 206.475 369.708 207.219 368.916C207.971 368.116 208.347 367.092 208.347 365.844C208.347 364.58 207.971 363.56 207.219 362.784C206.467 362 205.547 361.608 204.459 361.608C203.355 361.608 202.427 362 201.675 362.784C200.931 363.568 200.559 364.588 200.559 365.844C200.559 367.092 200.931 368.116 201.675 368.916C202.419 369.708 203.347 370.104 204.459 370.104ZM213.183 372V359.712H215.667V361.968L215.331 361.656H215.739C215.971 360.984 216.419 360.428 217.083 359.988C217.755 359.548 218.455 359.328 219.183 359.328C219.399 359.328 219.619 359.344 219.843 359.376C220.067 359.408 220.267 359.452 220.443 359.508C220.627 359.564 220.719 359.592 220.719 359.592V362.172C220.719 362.172 220.595 362.136 220.347 362.064C220.107 361.984 219.851 361.924 219.579 361.884C219.315 361.836 219.091 361.812 218.907 361.812C218.027 361.812 217.287 362.148 216.687 362.82C216.087 363.484 215.787 364.312 215.787 365.304V372H213.183ZM233.48 377.544C232.672 377.544 231.932 377.436 231.26 377.22C230.588 377.012 229.984 376.704 229.448 376.296C228.92 375.888 228.508 375.436 228.212 374.94C227.924 374.452 227.78 374.208 227.78 374.208L229.928 373.104C229.928 373.104 230.04 373.284 230.264 373.644C230.488 374.004 230.756 374.316 231.068 374.58C231.388 374.844 231.752 375.04 232.16 375.168C232.568 375.304 233 375.372 233.456 375.372C234.656 375.372 235.568 375.028 236.192 374.34C236.824 373.66 237.14 372.7 237.14 371.46V370.152H237.068C236.644 370.776 236.08 371.268 235.376 371.628C234.68 371.988 233.888 372.168 233 372.168C231.36 372.168 229.996 371.584 228.908 370.416C227.82 369.24 227.276 367.68 227.276 365.736C227.276 363.816 227.828 362.268 228.932 361.092C230.044 359.916 231.424 359.328 233.072 359.328C233.928 359.328 234.72 359.508 235.448 359.868C236.176 360.228 236.744 360.72 237.152 361.344H237.824L237.224 362.052V359.712H239.708V371.388C239.708 373.348 239.152 374.864 238.04 375.936C236.936 377.008 235.416 377.544 233.48 377.544ZM233.528 369.912C234.6 369.912 235.48 369.528 236.168 368.76C236.864 367.984 237.212 366.96 237.212 365.688C237.212 364.432 236.864 363.432 236.168 362.688C235.48 361.944 234.6 361.572 233.528 361.572C232.472 361.572 231.592 361.944 230.888 362.688C230.184 363.432 229.832 364.44 229.832 365.712C229.832 367.048 230.176 368.084 230.864 368.82C231.56 369.548 232.448 369.912 233.528 369.912ZM248.247 372.384C246.407 372.384 244.903 371.772 243.735 370.548C242.575 369.316 241.995 367.748 241.995 365.844C241.995 363.964 242.571 362.408 243.723 361.176C244.875 359.944 246.339 359.328 248.115 359.328C249.891 359.328 251.327 359.872 252.423 360.96C253.527 362.04 254.079 363.4 254.079 365.04V366.36H243.387V364.608H251.511C251.463 363.72 251.135 362.984 250.527 362.4C249.919 361.816 249.115 361.524 248.115 361.524C247.051 361.524 246.187 361.912 245.523 362.688C244.859 363.456 244.527 364.496 244.527 365.808C244.527 367.152 244.899 368.224 245.643 369.024C246.387 369.824 247.323 370.224 248.451 370.224C248.979 370.224 249.435 370.152 249.819 370.008C250.211 369.864 250.559 369.664 250.863 369.408C251.175 369.152 251.527 368.736 251.919 368.16L253.803 369.276C253.323 370.116 252.819 370.74 252.291 371.148C251.763 371.556 251.179 371.864 250.539 372.072C249.907 372.28 249.143 372.384 248.247 372.384ZM256.379 372V359.712H258.863V361.908L258.527 361.512H258.935C259.303 360.872 259.859 360.348 260.603 359.94C261.355 359.532 262.135 359.328 262.943 359.328C264.359 359.328 265.463 359.748 266.255 360.588C267.055 361.42 267.455 362.572 267.455 364.044V372H264.851V364.548C264.851 363.572 264.615 362.832 264.143 362.328C263.679 361.824 262.987 361.572 262.067 361.572C261.195 361.572 260.463 361.916 259.871 362.604C259.279 363.292 258.983 364.12 258.983 365.088V372H256.379ZM275.857 372.384C274.017 372.384 272.513 371.772 271.345 370.548C270.185 369.316 269.604 367.748 269.604 365.844C269.604 363.964 270.181 362.408 271.333 361.176C272.485 359.944 273.949 359.328 275.725 359.328C277.501 359.328 278.937 359.872 280.033 360.96C281.137 362.04 281.689 363.4 281.689 365.04V366.36H270.997V364.608H279.121C279.073 363.72 278.745 362.984 278.137 362.4C277.529 361.816 276.725 361.524 275.725 361.524C274.661 361.524 273.797 361.912 273.133 362.688C272.469 363.456 272.137 364.496 272.137 365.808C272.137 367.152 272.509 368.224 273.253 369.024C273.997 369.824 274.933 370.224 276.061 370.224C276.589 370.224 277.045 370.152 277.429 370.008C277.821 369.864 278.169 369.664 278.473 369.408C278.785 369.152 279.137 368.736 279.529 368.16L281.413 369.276C280.933 370.116 280.429 370.74 279.901 371.148C279.373 371.556 278.789 371.864 278.149 372.072C277.517 372.28 276.753 372.384 275.857 372.384ZM283.988 372V359.712H286.472V361.968L286.136 361.656H286.544C286.776 360.984 287.224 360.428 287.888 359.988C288.56 359.548 289.26 359.328 289.988 359.328C290.204 359.328 290.424 359.344 290.648 359.376C290.872 359.408 291.072 359.452 291.248 359.508C291.432 359.564 291.524 359.592 291.524 359.592V362.172C291.524 362.172 291.4 362.136 291.152 362.064C290.912 361.984 290.656 361.924 290.384 361.884C290.12 361.836 289.896 361.812 289.712 361.812C288.832 361.812 288.092 362.148 287.492 362.82C286.892 363.484 286.592 364.312 286.592 365.304V372H283.988ZM296.839 372.384C295.479 372.384 294.379 372.008 293.539 371.256C292.699 370.496 292.279 369.512 292.279 368.304C292.279 367.064 292.759 366.072 293.719 365.328C294.687 364.584 295.939 364.212 297.475 364.212C298.131 364.212 298.767 364.284 299.383 364.428C299.999 364.564 300.499 364.74 300.883 364.956V364.224C300.883 363.384 300.591 362.712 300.007 362.208C299.423 361.696 298.663 361.44 297.727 361.44C297.207 361.44 296.767 361.5 296.407 361.62C296.055 361.74 295.739 361.892 295.459 362.076C295.187 362.252 294.931 362.46 294.691 362.7C294.459 362.94 294.343 363.06 294.343 363.06L292.699 361.632C292.699 361.632 292.875 361.464 293.227 361.128C293.579 360.784 293.971 360.48 294.403 360.216C294.835 359.944 295.323 359.728 295.867 359.568C296.419 359.408 297.087 359.328 297.871 359.328C299.591 359.328 300.939 359.764 301.915 360.636C302.891 361.5 303.379 362.7 303.379 364.236V372H300.895V369.168L301.639 370.308H300.823C300.447 370.924 299.899 371.424 299.179 371.808C298.467 372.192 297.687 372.384 296.839 372.384ZM297.343 370.368C298.335 370.368 299.171 370.016 299.851 369.312C300.539 368.608 300.883 367.736 300.883 366.696V366.684C300.515 366.444 300.071 366.256 299.551 366.12C299.039 365.984 298.499 365.916 297.931 365.916C296.979 365.916 296.219 366.108 295.651 366.492C295.091 366.876 294.811 367.456 294.811 368.232C294.811 368.88 295.047 369.4 295.519 369.792C295.991 370.176 296.599 370.368 297.343 370.368ZM310.525 372.384C309.429 372.384 308.553 372.068 307.897 371.436C307.241 370.796 306.913 369.892 306.913 368.724V356.304H309.505V368.232C309.505 368.888 309.637 369.372 309.901 369.684C310.165 369.996 310.557 370.152 311.077 370.152C311.213 370.152 311.361 370.14 311.521 370.116C311.689 370.084 311.897 370.028 312.145 369.948C312.393 369.868 312.517 369.828 312.517 369.828V372.036C312.517 372.036 312.389 372.072 312.133 372.144C311.885 372.224 311.637 372.284 311.389 372.324C311.141 372.364 310.853 372.384 310.525 372.384ZM304.873 361.884V359.712H312.493V361.884H304.873ZM315.035 372V359.712H317.639V372H315.035ZM316.343 357.42C315.895 357.42 315.511 357.264 315.191 356.952C314.879 356.632 314.723 356.248 314.723 355.8C314.723 355.344 314.879 354.964 315.191 354.66C315.511 354.356 315.895 354.204 316.343 354.204C316.807 354.204 317.187 354.356 317.483 354.66C317.787 354.964 317.939 355.344 317.939 355.8C317.939 356.248 317.787 356.632 317.483 356.952C317.187 357.264 316.807 357.42 316.343 357.42ZM320.761 372V359.712H323.245V361.908L322.909 361.512H323.317C323.685 360.872 324.241 360.348 324.985 359.94C325.737 359.532 326.517 359.328 327.325 359.328C328.741 359.328 329.845 359.748 330.637 360.588C331.437 361.42 331.837 362.572 331.837 364.044V372H329.233V364.548C329.233 363.572 328.997 362.832 328.525 362.328C328.061 361.824 327.369 361.572 326.449 361.572C325.577 361.572 324.845 361.916 324.253 362.604C323.661 363.292 323.365 364.12 323.365 365.088V372H320.761ZM340.191 377.544C339.383 377.544 338.643 377.436 337.971 377.22C337.299 377.012 336.695 376.704 336.159 376.296C335.631 375.888 335.219 375.436 334.923 374.94C334.635 374.452 334.491 374.208 334.491 374.208L336.639 373.104C336.639 373.104 336.751 373.284 336.975 373.644C337.199 374.004 337.467 374.316 337.779 374.58C338.099 374.844 338.463 375.04 338.871 375.168C339.279 375.304 339.711 375.372 340.167 375.372C341.367 375.372 342.279 375.028 342.903 374.34C343.535 373.66 343.851 372.7 343.851 371.46V370.152H343.779C343.355 370.776 342.791 371.268 342.087 371.628C341.391 371.988 340.599 372.168 339.711 372.168C338.071 372.168 336.707 371.584 335.619 370.416C334.531 369.24 333.987 367.68 333.987 365.736C333.987 363.816 334.539 362.268 335.643 361.092C336.755 359.916 338.135 359.328 339.783 359.328C340.639 359.328 341.431 359.508 342.159 359.868C342.887 360.228 343.455 360.72 343.863 361.344H344.535L343.935 362.052V359.712H346.419V371.388C346.419 373.348 345.863 374.864 344.751 375.936C343.647 377.008 342.127 377.544 340.191 377.544ZM340.239 369.912C341.311 369.912 342.191 369.528 342.879 368.76C343.575 367.984 343.923 366.96 343.923 365.688C343.923 364.432 343.575 363.432 342.879 362.688C342.191 361.944 341.311 361.572 340.239 361.572C339.183 361.572 338.303 361.944 337.599 362.688C336.895 363.432 336.543 364.44 336.543 365.712C336.543 367.048 336.887 368.084 337.575 368.82C338.271 369.548 339.159 369.912 340.239 369.912ZM358.597 372.384C357.237 372.384 356.137 372.008 355.297 371.256C354.457 370.496 354.037 369.512 354.037 368.304C354.037 367.064 354.517 366.072 355.477 365.328C356.445 364.584 357.697 364.212 359.233 364.212C359.889 364.212 360.525 364.284 361.141 364.428C361.757 364.564 362.257 364.74 362.641 364.956V364.224C362.641 363.384 362.349 362.712 361.765 362.208C361.181 361.696 360.421 361.44 359.485 361.44C358.965 361.44 358.525 361.5 358.165 361.62C357.813 361.74 357.497 361.892 357.217 362.076C356.945 362.252 356.689 362.46 356.449 362.7C356.217 362.94 356.101 363.06 356.101 363.06L354.457 361.632C354.457 361.632 354.633 361.464 354.985 361.128C355.337 360.784 355.729 360.48 356.161 360.216C356.593 359.944 357.081 359.728 357.625 359.568C358.177 359.408 358.845 359.328 359.629 359.328C361.349 359.328 362.697 359.764 363.673 360.636C364.649 361.5 365.137 362.7 365.137 364.236V372H362.653V369.168L363.397 370.308H362.581C362.205 370.924 361.657 371.424 360.937 371.808C360.225 372.192 359.445 372.384 358.597 372.384ZM359.101 370.368C360.093 370.368 360.929 370.016 361.609 369.312C362.297 368.608 362.641 367.736 362.641 366.696V366.684C362.273 366.444 361.829 366.256 361.309 366.12C360.797 365.984 360.257 365.916 359.689 365.916C358.737 365.916 357.977 366.108 357.409 366.492C356.849 366.876 356.569 367.456 356.569 368.232C356.569 368.88 356.805 369.4 357.277 369.792C357.749 370.176 358.357 370.368 359.101 370.368ZM367.988 372V359.712H370.472V361.908L370.136 361.512H370.544C370.912 360.872 371.468 360.348 372.212 359.94C372.964 359.532 373.744 359.328 374.552 359.328C375.968 359.328 377.072 359.748 377.864 360.588C378.664 361.42 379.064 362.572 379.064 364.044V372H376.46V364.548C376.46 363.572 376.224 362.832 375.752 362.328C375.288 361.824 374.596 361.572 373.676 361.572C372.804 361.572 372.072 361.916 371.48 362.604C370.888 363.292 370.592 364.12 370.592 365.088V372H367.988ZM387.034 372.384C385.362 372.384 383.974 371.78 382.87 370.572C381.766 369.356 381.214 367.788 381.214 365.868C381.214 363.956 381.774 362.392 382.894 361.176C384.014 359.952 385.414 359.34 387.094 359.34C387.958 359.34 388.75 359.532 389.47 359.916C390.19 360.3 390.734 360.8 391.102 361.416H391.162V354.816H393.742V372H391.258V369.828L391.534 370.272L391.198 370.284C390.814 370.924 390.246 371.436 389.494 371.82C388.742 372.196 387.922 372.384 387.034 372.384ZM387.514 370.14C388.57 370.14 389.458 369.736 390.178 368.928C390.898 368.12 391.258 367.092 391.258 365.844C391.258 364.596 390.894 363.58 390.166 362.796C389.438 362.012 388.554 361.62 387.514 361.62C386.466 361.62 385.578 362.012 384.85 362.796C384.122 363.58 383.758 364.6 383.758 365.856C383.758 367.104 384.118 368.132 384.838 368.94C385.566 369.74 386.458 370.14 387.514 370.14ZM34.028 398L29.084 385.712H31.82L35.06 394.304L35.348 395.132H35.42L35.72 394.292L38.972 385.712H41.648L36.644 398H34.028ZM48.1378 398.384C46.2978 398.384 44.7938 397.772 43.6258 396.548C42.4658 395.316 41.8857 393.748 41.8857 391.844C41.8857 389.964 42.4618 388.408 43.6138 387.176C44.7658 385.944 46.2298 385.328 48.0058 385.328C49.7818 385.328 51.2178 385.872 52.3138 386.96C53.4178 388.04 53.9698 389.4 53.9698 391.04V392.36H43.2778V390.608H51.4018C51.3538 389.72 51.0258 388.984 50.4178 388.4C49.8098 387.816 49.0058 387.524 48.0058 387.524C46.9418 387.524 46.0778 387.912 45.4138 388.688C44.7498 389.456 44.4178 390.496 44.4178 391.808C44.4178 393.152 44.7898 394.224 45.5338 395.024C46.2778 395.824 47.2138 396.224 48.3418 396.224C48.8698 396.224 49.3258 396.152 49.7098 396.008C50.1018 395.864 50.4498 395.664 50.7538 395.408C51.0658 395.152 51.4178 394.736 51.8098 394.16L53.6938 395.276C53.2138 396.116 52.7098 396.74 52.1818 397.148C51.6538 397.556 51.0698 397.864 50.4298 398.072C49.7978 398.28 49.0338 398.384 48.1378 398.384ZM56.2693 398V385.712H58.7533V387.968L58.4173 387.656H58.8253C59.0573 386.984 59.5053 386.428 60.1693 385.988C60.8413 385.548 61.5413 385.328 62.2693 385.328C62.4853 385.328 62.7053 385.344 62.9293 385.376C63.1533 385.408 63.3533 385.452 63.5293 385.508C63.7133 385.564 63.8053 385.592 63.8053 385.592V388.172C63.8053 388.172 63.6813 388.136 63.4333 388.064C63.1933 387.984 62.9373 387.924 62.6653 387.884C62.4013 387.836 62.1773 387.812 61.9933 387.812C61.1133 387.812 60.3733 388.148 59.7733 388.82C59.1733 389.484 58.8733 390.312 58.8733 391.304V398H56.2693ZM65.8471 398V385.712H68.4511V398H65.8471ZM67.1551 383.42C66.7071 383.42 66.3231 383.264 66.0031 382.952C65.6911 382.632 65.5351 382.248 65.5351 381.8C65.5351 381.344 65.6911 380.964 66.0031 380.66C66.3231 380.356 66.7071 380.204 67.1551 380.204C67.6191 380.204 67.9991 380.356 68.2951 380.66C68.5991 380.964 68.7511 381.344 68.7511 381.8C68.7511 382.248 68.5991 382.632 68.2951 382.952C67.9991 383.264 67.6191 383.42 67.1551 383.42ZM70.6979 387.884V385.712H78.3779V387.884H70.6979ZM72.8099 398V384.38C72.8099 383.196 73.1859 382.244 73.9379 381.524C74.6899 380.796 75.6739 380.432 76.8899 380.432C77.1939 380.432 77.4739 380.452 77.7299 380.492C77.9939 380.524 78.2419 380.568 78.4739 380.624C78.7139 380.68 78.8339 380.708 78.8339 380.708V382.928C78.8339 382.928 78.7339 382.904 78.5339 382.856C78.3419 382.808 78.1339 382.768 77.9099 382.736C77.6939 382.704 77.4579 382.688 77.2019 382.688C76.6819 382.688 76.2539 382.844 75.9179 383.156C75.5819 383.468 75.4139 383.92 75.4139 384.512V386.348V386.828V398H72.8099ZM81.6031 403.172C81.6031 403.172 81.5991 403.172 81.5911 403.172C81.5911 403.172 81.5951 403.172 81.6031 403.172L84.6751 396.464L84.7351 398.012L79.2871 385.712H82.0351L85.2991 393.464L85.6111 394.412H85.6831L86.0311 393.44L89.1151 385.712C89.1071 385.712 89.1031 385.712 89.1031 385.712C89.1111 385.712 89.1151 385.712 89.1151 385.712H91.8151L84.3151 403.172H81.6031ZM93.5503 398V385.712H96.1543V398H93.5503ZM94.8583 383.42C94.4103 383.42 94.0263 383.264 93.7063 382.952C93.3943 382.632 93.2383 382.248 93.2383 381.8C93.2383 381.344 93.3943 380.964 93.7063 380.66C94.0263 380.356 94.4103 380.204 94.8583 380.204C95.3223 380.204 95.7023 380.356 95.9983 380.66C96.3023 380.964 96.4543 381.344 96.4543 381.8C96.4543 382.248 96.3023 382.632 95.9983 382.952C95.7023 383.264 95.3223 383.42 94.8583 383.42ZM99.2771 398V385.712H101.761V387.908L101.425 387.512H101.833C102.201 386.872 102.757 386.348 103.501 385.94C104.253 385.532 105.033 385.328 105.841 385.328C107.257 385.328 108.361 385.748 109.153 386.588C109.953 387.42 110.353 388.572 110.353 390.044V398H107.749V390.548C107.749 389.572 107.513 388.832 107.041 388.328C106.577 387.824 105.885 387.572 104.965 387.572C104.093 387.572 103.361 387.916 102.769 388.604C102.177 389.292 101.881 390.12 101.881 391.088V398H99.2771ZM118.707 403.544C117.899 403.544 117.159 403.436 116.487 403.22C115.815 403.012 115.211 402.704 114.675 402.296C114.147 401.888 113.735 401.436 113.439 400.94C113.151 400.452 113.007 400.208 113.007 400.208L115.155 399.104C115.155 399.104 115.267 399.284 115.491 399.644C115.715 400.004 115.983 400.316 116.295 400.58C116.615 400.844 116.979 401.04 117.387 401.168C117.795 401.304 118.227 401.372 118.683 401.372C119.883 401.372 120.795 401.028 121.419 400.34C122.051 399.66 122.367 398.7 122.367 397.46V396.152H122.295C121.871 396.776 121.307 397.268 120.603 397.628C119.907 397.988 119.115 398.168 118.227 398.168C116.587 398.168 115.223 397.584 114.135 396.416C113.047 395.24 112.503 393.68 112.503 391.736C112.503 389.816 113.055 388.268 114.159 387.092C115.271 385.916 116.651 385.328 118.299 385.328C119.155 385.328 119.947 385.508 120.675 385.868C121.403 386.228 121.971 386.72 122.379 387.344H123.051L122.451 388.052V385.712H124.935V397.388C124.935 399.348 124.379 400.864 123.267 401.936C122.163 403.008 120.643 403.544 118.707 403.544ZM118.755 395.912C119.827 395.912 120.707 395.528 121.395 394.76C122.091 393.984 122.439 392.96 122.439 391.688C122.439 390.432 122.091 389.432 121.395 388.688C120.707 387.944 119.827 387.572 118.755 387.572C117.699 387.572 116.819 387.944 116.115 388.688C115.411 389.432 115.059 390.44 115.059 391.712C115.059 393.048 115.403 394.084 116.091 394.82C116.787 395.548 117.675 395.912 118.755 395.912ZM133.657 398V380.816H136.297V398H133.657ZM140.008 398V380.816H150.04V383.276H142.6V395.54H150.172V398H140.008ZM141.424 390.56V388.256H149.632V390.56H141.424ZM157.071 398V382.076H159.699V398H157.071ZM152.283 383.288V380.816H164.463V383.288H152.283ZM166.891 398V380.816H176.719V383.288H169.519V398H166.891ZM168.331 390.848V388.472H176.395V390.848H168.331ZM176.924 399.944L178.376 397.904C178.048 397.816 177.776 397.636 177.56 397.364C177.344 397.084 177.236 396.752 177.236 396.368C177.236 395.888 177.404 395.48 177.74 395.144C178.084 394.8 178.512 394.628 179.024 394.628C179.536 394.628 179.96 394.8 180.296 395.144C180.64 395.48 180.812 395.896 180.812 396.392C180.812 396.664 180.76 396.936 180.656 397.208C180.552 397.472 180.36 397.808 180.08 398.216L178.28 400.868C178.28 400.868 177.828 400.56 176.924 399.944ZM189.274 398V380.816H195.31C197.014 380.816 198.39 381.336 199.438 382.376C200.486 383.408 201.01 384.776 201.01 386.48C201.01 388.168 200.466 389.504 199.378 390.488C198.298 391.472 196.91 391.964 195.214 391.964H190.69V389.648H195.142C196.11 389.648 196.89 389.36 197.482 388.784C198.074 388.208 198.37 387.448 198.37 386.504C198.37 385.536 198.082 384.748 197.506 384.14C196.93 383.532 196.174 383.228 195.238 383.228H191.89V398H189.274ZM208.357 398.384C206.517 398.384 205.013 397.772 203.845 396.548C202.685 395.316 202.104 393.748 202.104 391.844C202.104 389.964 202.681 388.408 203.833 387.176C204.985 385.944 206.449 385.328 208.225 385.328C210.001 385.328 211.437 385.872 212.533 386.96C213.637 388.04 214.189 389.4 214.189 391.04V392.36H203.497V390.608H211.621C211.573 389.72 211.245 388.984 210.637 388.4C210.029 387.816 209.225 387.524 208.225 387.524C207.161 387.524 206.297 387.912 205.633 388.688C204.969 389.456 204.637 390.496 204.637 391.808C204.637 393.152 205.009 394.224 205.753 395.024C206.497 395.824 207.433 396.224 208.561 396.224C209.089 396.224 209.545 396.152 209.929 396.008C210.321 395.864 210.669 395.664 210.973 395.408C211.285 395.152 211.637 394.736 212.029 394.16L213.913 395.276C213.433 396.116 212.929 396.74 212.401 397.148C211.873 397.556 211.289 397.864 210.649 398.072C210.017 398.28 209.253 398.384 208.357 398.384ZM221.612 398.384C219.94 398.384 218.552 397.78 217.448 396.572C216.344 395.356 215.792 393.788 215.792 391.868C215.792 389.956 216.352 388.392 217.472 387.176C218.592 385.952 219.992 385.34 221.672 385.34C222.536 385.34 223.328 385.532 224.048 385.916C224.768 386.3 225.312 386.8 225.68 387.416H225.74V380.816H228.32V398H225.836V395.828L226.112 396.272L225.776 396.284C225.392 396.924 224.824 397.436 224.072 397.82C223.32 398.196 222.5 398.384 221.612 398.384ZM222.092 396.14C223.148 396.14 224.036 395.736 224.756 394.928C225.476 394.12 225.836 393.092 225.836 391.844C225.836 390.596 225.472 389.58 224.744 388.796C224.016 388.012 223.132 387.62 222.092 387.62C221.044 387.62 220.156 388.012 219.428 388.796C218.7 389.58 218.336 390.6 218.336 391.856C218.336 393.104 218.696 394.132 219.416 394.94C220.144 395.74 221.036 396.14 222.092 396.14ZM236.857 398.384C235.017 398.384 233.513 397.772 232.345 396.548C231.185 395.316 230.604 393.748 230.604 391.844C230.604 389.964 231.181 388.408 232.333 387.176C233.485 385.944 234.949 385.328 236.725 385.328C238.501 385.328 239.937 385.872 241.033 386.96C242.137 388.04 242.689 389.4 242.689 391.04V392.36H231.997V390.608H240.121C240.073 389.72 239.745 388.984 239.137 388.4C238.529 387.816 237.725 387.524 236.725 387.524C235.661 387.524 234.797 387.912 234.133 388.688C233.469 389.456 233.137 390.496 233.137 391.808C233.137 393.152 233.509 394.224 234.253 395.024C234.997 395.824 235.933 396.224 237.061 396.224C237.589 396.224 238.045 396.152 238.429 396.008C238.821 395.864 239.169 395.664 239.473 395.408C239.785 395.152 240.137 394.736 240.529 394.16L242.413 395.276C241.933 396.116 241.429 396.74 240.901 397.148C240.373 397.556 239.789 397.864 239.149 398.072C238.517 398.28 237.753 398.384 236.857 398.384ZM244.988 398V385.712H247.472V387.968L247.136 387.656H247.544C247.776 386.984 248.224 386.428 248.888 385.988C249.56 385.548 250.26 385.328 250.988 385.328C251.204 385.328 251.424 385.344 251.648 385.376C251.872 385.408 252.072 385.452 252.248 385.508C252.432 385.564 252.524 385.592 252.524 385.592V388.172C252.524 388.172 252.4 388.136 252.152 388.064C251.912 387.984 251.656 387.924 251.384 387.884C251.12 387.836 250.896 387.812 250.712 387.812C249.832 387.812 249.092 388.148 248.492 388.82C247.892 389.484 247.592 390.312 247.592 391.304V398H244.988ZM258.51 398.384C257.702 398.384 256.986 398.288 256.362 398.096C255.746 397.904 255.19 397.616 254.694 397.232C254.206 396.848 253.822 396.428 253.542 395.972C253.27 395.516 253.134 395.288 253.134 395.288L255.09 394.112C255.09 394.112 255.198 394.284 255.414 394.628C255.638 394.964 255.906 395.26 256.218 395.516C256.53 395.764 256.878 395.952 257.262 396.08C257.654 396.208 258.118 396.272 258.654 396.272C259.39 396.272 259.974 396.136 260.406 395.864C260.838 395.584 261.054 395.176 261.054 394.64C261.054 394.208 260.874 393.864 260.514 393.608C260.154 393.344 259.362 393.076 258.138 392.804C256.538 392.436 255.382 391.94 254.67 391.316C253.966 390.692 253.614 389.896 253.614 388.928C253.614 387.864 254.074 387 254.994 386.336C255.922 385.664 257.062 385.328 258.414 385.328C259.126 385.328 259.762 385.404 260.322 385.556C260.89 385.708 261.402 385.948 261.858 386.276C262.314 386.596 262.666 386.936 262.914 387.296C263.162 387.648 263.286 387.824 263.286 387.824L261.402 388.988C261.402 388.988 261.306 388.868 261.114 388.628C260.922 388.38 260.69 388.164 260.418 387.98C260.146 387.788 259.838 387.652 259.494 387.572C259.15 387.484 258.778 387.44 258.378 387.44C257.714 387.44 257.174 387.58 256.758 387.86C256.342 388.14 256.134 388.468 256.134 388.844C256.134 389.244 256.298 389.584 256.626 389.864C256.962 390.136 257.79 390.424 259.11 390.728C260.742 391.096 261.894 391.592 262.566 392.216C263.246 392.84 263.586 393.6 263.586 394.496C263.586 395.664 263.114 396.604 262.17 397.316C261.226 398.028 260.006 398.384 258.51 398.384ZM271.263 398.384C269.423 398.384 267.919 397.772 266.751 396.548C265.591 395.316 265.011 393.748 265.011 391.844C265.011 389.964 265.587 388.408 266.739 387.176C267.891 385.944 269.355 385.328 271.131 385.328C272.907 385.328 274.343 385.872 275.439 386.96C276.543 388.04 277.095 389.4 277.095 391.04V392.36H266.403V390.608H274.527C274.479 389.72 274.151 388.984 273.543 388.4C272.935 387.816 272.131 387.524 271.131 387.524C270.067 387.524 269.203 387.912 268.539 388.688C267.875 389.456 267.543 390.496 267.543 391.808C267.543 393.152 267.915 394.224 268.659 395.024C269.403 395.824 270.339 396.224 271.467 396.224C271.995 396.224 272.451 396.152 272.835 396.008C273.227 395.864 273.575 395.664 273.879 395.408C274.191 395.152 274.543 394.736 274.935 394.16L276.819 395.276C276.339 396.116 275.835 396.74 275.307 397.148C274.779 397.556 274.195 397.864 273.555 398.072C272.923 398.28 272.159 398.384 271.263 398.384ZM279.394 398V385.712H281.878V387.908L281.542 387.512H281.95C282.318 386.872 282.874 386.348 283.618 385.94C284.37 385.532 285.15 385.328 285.958 385.328C287.374 385.328 288.478 385.748 289.27 386.588C290.07 387.42 290.47 388.572 290.47 390.044V398H287.866V390.548C287.866 389.572 287.63 388.832 287.158 388.328C286.694 387.824 286.002 387.572 285.082 387.572C284.21 387.572 283.478 387.916 282.886 388.604C282.294 389.292 281.998 390.12 281.998 391.088V398H279.394ZM303.651 398L297.459 380.816H300.291L304.383 392.612L304.935 394.328H305.007L305.571 392.648L309.747 380.816H312.543L306.159 398H303.651ZM314.665 398V380.816H320.797C322.341 380.816 323.653 381.304 324.733 382.28C325.813 383.256 326.353 384.512 326.353 386.048C326.353 387.6 325.821 388.868 324.757 389.852C323.693 390.836 322.281 391.328 320.521 391.328H315.901V389.144H320.593C321.457 389.144 322.193 388.864 322.801 388.304C323.409 387.736 323.713 387.004 323.713 386.108C323.713 385.3 323.421 384.616 322.837 384.056C322.253 383.496 321.545 383.216 320.713 383.216H317.281V398H314.665ZM324.145 398L319.033 390.176L321.841 390.044L327.277 398H324.145ZM329.313 398V380.816H339.141V383.288H331.941V398H329.313ZM330.753 390.848V388.472H338.817V390.848H330.753ZM351.074 398.384C349.714 398.384 348.614 398.008 347.774 397.256C346.934 396.496 346.514 395.512 346.514 394.304C346.514 393.064 346.994 392.072 347.954 391.328C348.922 390.584 350.174 390.212 351.71 390.212C352.366 390.212 353.002 390.284 353.618 390.428C354.234 390.564 354.734 390.74 355.118 390.956V390.224C355.118 389.384 354.826 388.712 354.242 388.208C353.658 387.696 352.898 387.44 351.962 387.44C351.442 387.44 351.002 387.5 350.642 387.62C350.29 387.74 349.974 387.892 349.694 388.076C349.422 388.252 349.166 388.46 348.926 388.7C348.694 388.94 348.578 389.06 348.578 389.06L346.934 387.632C346.934 387.632 347.11 387.464 347.462 387.128C347.814 386.784 348.206 386.48 348.638 386.216C349.07 385.944 349.558 385.728 350.102 385.568C350.654 385.408 351.322 385.328 352.106 385.328C353.826 385.328 355.174 385.764 356.15 386.636C357.126 387.5 357.614 388.7 357.614 390.236V398H355.13V395.168L355.874 396.308H355.058C354.682 396.924 354.134 397.424 353.414 397.808C352.702 398.192 351.922 398.384 351.074 398.384ZM351.578 396.368C352.57 396.368 353.406 396.016 354.086 395.312C354.774 394.608 355.118 393.736 355.118 392.696V392.684C354.75 392.444 354.306 392.256 353.786 392.12C353.274 391.984 352.734 391.916 352.166 391.916C351.214 391.916 350.454 392.108 349.886 392.492C349.326 392.876 349.046 393.456 349.046 394.232C349.046 394.88 349.282 395.4 349.754 395.792C350.226 396.176 350.834 396.368 351.578 396.368ZM360.465 398V385.712H362.949V387.908L362.613 387.512H363.021C363.389 386.872 363.945 386.348 364.689 385.94C365.441 385.532 366.221 385.328 367.029 385.328C368.445 385.328 369.549 385.748 370.341 386.588C371.141 387.42 371.541 388.572 371.541 390.044V398H368.937V390.548C368.937 389.572 368.701 388.832 368.229 388.328C367.765 387.824 367.073 387.572 366.153 387.572C365.281 387.572 364.549 387.916 363.957 388.604C363.365 389.292 363.069 390.12 363.069 391.088V398H360.465ZM379.51 398.384C377.838 398.384 376.45 397.78 375.346 396.572C374.242 395.356 373.69 393.788 373.69 391.868C373.69 389.956 374.25 388.392 375.37 387.176C376.49 385.952 377.89 385.34 379.57 385.34C380.434 385.34 381.226 385.532 381.946 385.916C382.666 386.3 383.21 386.8 383.578 387.416H383.638V380.816H386.218V398H383.734V395.828L384.01 396.272L383.674 396.284C383.29 396.924 382.722 397.436 381.97 397.82C381.218 398.196 380.398 398.384 379.51 398.384ZM379.99 396.14C381.046 396.14 381.934 395.736 382.654 394.928C383.374 394.12 383.734 393.092 383.734 391.844C383.734 390.596 383.37 389.58 382.642 388.796C381.914 388.012 381.03 387.62 379.99 387.62C378.942 387.62 378.054 388.012 377.326 388.796C376.598 389.58 376.234 390.6 376.234 391.856C376.234 393.104 376.594 394.132 377.314 394.94C378.042 395.74 378.934 396.14 379.99 396.14ZM30.86 424V406.816H36.992C38.536 406.816 39.848 407.304 40.928 408.28C42.008 409.256 42.548 410.512 42.548 412.048C42.548 413.6 42.016 414.868 40.952 415.852C39.888 416.836 38.476 417.328 36.716 417.328H32.096V415.144H36.788C37.652 415.144 38.388 414.864 38.996 414.304C39.604 413.736 39.908 413.004 39.908 412.108C39.908 411.3 39.616 410.616 39.032 410.056C38.448 409.496 37.74 409.216 36.908 409.216H33.476V424H30.86ZM40.34 424L35.228 416.176L38.036 416.044L43.472 424H40.34ZM45.2924 424V411.712H47.8964V424H45.2924ZM46.6004 409.42C46.1524 409.42 45.7684 409.264 45.4484 408.952C45.1364 408.632 44.9804 408.248 44.9804 407.8C44.9804 407.344 45.1364 406.964 45.4484 406.66C45.7684 406.356 46.1524 406.204 46.6004 406.204C47.0644 406.204 47.4444 406.356 47.7404 406.66C48.0444 406.964 48.1964 407.344 48.1964 407.8C48.1964 408.248 48.0444 408.632 47.7404 408.952C47.4444 409.264 47.0644 409.42 46.6004 409.42ZM51.0193 424V411.712H53.5033V413.908L53.1673 413.512H53.5753C53.9433 412.872 54.4993 412.348 55.2433 411.94C55.9953 411.532 56.7753 411.328 57.5833 411.328C58.9993 411.328 60.1033 411.748 60.8953 412.588C61.6953 413.42 62.0953 414.572 62.0953 416.044V424H59.4913V416.548C59.4913 415.572 59.2553 414.832 58.7833 414.328C58.3193 413.824 57.6273 413.572 56.7073 413.572C55.8353 413.572 55.1033 413.916 54.5113 414.604C53.9193 415.292 53.6233 416.12 53.6233 417.088V424H51.0193ZM70.4491 429.544C69.6411 429.544 68.9011 429.436 68.2291 429.22C67.5571 429.012 66.9531 428.704 66.4171 428.296C65.8891 427.888 65.4771 427.436 65.1811 426.94C64.8931 426.452 64.7491 426.208 64.7491 426.208L66.8971 425.104C66.8971 425.104 67.0091 425.284 67.2331 425.644C67.4571 426.004 67.7251 426.316 68.0371 426.58C68.3571 426.844 68.7211 427.04 69.1291 427.168C69.5371 427.304 69.9691 427.372 70.4251 427.372C71.6251 427.372 72.5371 427.028 73.1611 426.34C73.7931 425.66 74.1091 424.7 74.1091 423.46V422.152H74.0371C73.6131 422.776 73.0491 423.268 72.3451 423.628C71.6491 423.988 70.8571 424.168 69.9691 424.168C68.3291 424.168 66.9651 423.584 65.8771 422.416C64.7891 421.24 64.2451 419.68 64.2451 417.736C64.2451 415.816 64.7971 414.268 65.9011 413.092C67.0131 411.916 68.3931 411.328 70.0411 411.328C70.8971 411.328 71.6891 411.508 72.4171 411.868C73.1451 412.228 73.7131 412.72 74.1211 413.344H74.7931L74.1931 414.052V411.712H76.6771V423.388C76.6771 425.348 76.1211 426.864 75.0091 427.936C73.9051 429.008 72.3851 429.544 70.4491 429.544ZM70.4971 421.912C71.5691 421.912 72.4491 421.528 73.1371 420.76C73.8331 419.984 74.1811 418.96 74.1811 417.688C74.1811 416.432 73.8331 415.432 73.1371 414.688C72.4491 413.944 71.5691 413.572 70.4971 413.572C69.4411 413.572 68.5611 413.944 67.8571 414.688C67.1531 415.432 66.8011 416.44 66.8011 417.712C66.8011 419.048 67.1451 420.084 67.8331 420.82C68.5291 421.548 69.4171 421.912 70.4971 421.912ZM85.3991 424V406.816H91.4351C93.1391 406.816 94.5151 407.336 95.5631 408.376C96.6111 409.408 97.1351 410.776 97.1351 412.48C97.1351 414.168 96.5911 415.504 95.5031 416.488C94.4231 417.472 93.0351 417.964 91.3391 417.964H86.8151V415.648H91.2671C92.2351 415.648 93.0151 415.36 93.6071 414.784C94.1991 414.208 94.4951 413.448 94.4951 412.504C94.4951 411.536 94.2071 410.748 93.6311 410.14C93.0551 409.532 92.2991 409.228 91.3631 409.228H88.0151V424H85.3991ZM99.3005 424V411.712H101.785V413.968L101.449 413.656H101.857C102.089 412.984 102.537 412.428 103.201 411.988C103.873 411.548 104.573 411.328 105.301 411.328C105.517 411.328 105.737 411.344 105.961 411.376C106.185 411.408 106.385 411.452 106.561 411.508C106.745 411.564 106.837 411.592 106.837 411.592V414.172C106.837 414.172 106.713 414.136 106.465 414.064C106.225 413.984 105.969 413.924 105.697 413.884C105.433 413.836 105.209 413.812 105.025 413.812C104.145 413.812 103.405 414.148 102.805 414.82C102.205 415.484 101.905 416.312 101.905 417.304V424H99.3005ZM113.943 424.384C112.079 424.384 110.535 423.764 109.311 422.524C108.095 421.284 107.487 419.724 107.487 417.844C107.487 415.948 108.099 414.388 109.323 413.164C110.547 411.94 112.087 411.328 113.943 411.328C115.791 411.328 117.327 411.944 118.551 413.176C119.783 414.408 120.399 415.964 120.399 417.844C120.399 419.724 119.791 421.284 118.575 422.524C117.359 423.764 115.815 424.384 113.943 424.384ZM113.943 422.104C115.039 422.104 115.959 421.708 116.703 420.916C117.455 420.116 117.831 419.092 117.831 417.844C117.831 416.58 117.455 415.56 116.703 414.784C115.951 414 115.031 413.608 113.943 413.608C112.839 413.608 111.911 414 111.159 414.784C110.415 415.568 110.043 416.588 110.043 417.844C110.043 419.092 110.415 420.116 111.159 420.916C111.903 421.708 112.831 422.104 113.943 422.104ZM128.428 424.384C126.564 424.384 125.02 423.764 123.796 422.524C122.58 421.284 121.972 419.724 121.972 417.844C121.972 415.948 122.584 414.388 123.808 413.164C125.032 411.94 126.572 411.328 128.428 411.328C130.276 411.328 131.812 411.944 133.036 413.176C134.268 414.408 134.884 415.964 134.884 417.844C134.884 419.724 134.276 421.284 133.06 422.524C131.844 423.764 130.3 424.384 128.428 424.384ZM128.428 422.104C129.524 422.104 130.444 421.708 131.188 420.916C131.94 420.116 132.316 419.092 132.316 417.844C132.316 416.58 131.94 415.56 131.188 414.784C130.436 414 129.516 413.608 128.428 413.608C127.324 413.608 126.396 414 125.644 414.784C124.9 415.568 124.528 416.588 124.528 417.844C124.528 419.092 124.9 420.116 125.644 420.916C126.388 421.708 127.316 422.104 128.428 422.104ZM135.831 413.884V411.712H143.511V413.884H135.831ZM137.943 424V410.38C137.943 409.196 138.319 408.244 139.071 407.524C139.823 406.796 140.807 406.432 142.023 406.432C142.327 406.432 142.607 406.452 142.863 406.492C143.127 406.524 143.375 406.568 143.607 406.624C143.847 406.68 143.967 406.708 143.967 406.708V408.928C143.967 408.928 143.867 408.904 143.667 408.856C143.475 408.808 143.267 408.768 143.043 408.736C142.827 408.704 142.591 408.688 142.335 408.688C141.815 408.688 141.387 408.844 141.051 409.156C140.715 409.468 140.547 409.92 140.547 410.512V412.348V412.828V424H137.943ZM150.041 424.384C149.233 424.384 148.517 424.288 147.893 424.096C147.277 423.904 146.721 423.616 146.225 423.232C145.737 422.848 145.353 422.428 145.073 421.972C144.801 421.516 144.665 421.288 144.665 421.288L146.621 420.112C146.621 420.112 146.729 420.284 146.945 420.628C147.169 420.964 147.437 421.26 147.749 421.516C148.061 421.764 148.409 421.952 148.793 422.08C149.185 422.208 149.649 422.272 150.185 422.272C150.921 422.272 151.505 422.136 151.937 421.864C152.369 421.584 152.585 421.176 152.585 420.64C152.585 420.208 152.405 419.864 152.045 419.608C151.685 419.344 150.893 419.076 149.669 418.804C148.069 418.436 146.913 417.94 146.201 417.316C145.497 416.692 145.145 415.896 145.145 414.928C145.145 413.864 145.605 413 146.525 412.336C147.453 411.664 148.593 411.328 149.945 411.328C150.657 411.328 151.293 411.404 151.853 411.556C152.421 411.708 152.933 411.948 153.389 412.276C153.845 412.596 154.197 412.936 154.445 413.296C154.693 413.648 154.817 413.824 154.817 413.824L152.933 414.988C152.933 414.988 152.837 414.868 152.645 414.628C152.453 414.38 152.221 414.164 151.949 413.98C151.677 413.788 151.369 413.652 151.025 413.572C150.681 413.484 150.309 413.44 149.909 413.44C149.245 413.44 148.705 413.58 148.289 413.86C147.873 414.14 147.665 414.468 147.665 414.844C147.665 415.244 147.829 415.584 148.157 415.864C148.493 416.136 149.321 416.424 150.641 416.728C152.273 417.096 153.425 417.592 154.097 418.216C154.777 418.84 155.117 419.6 155.117 420.496C155.117 421.664 154.645 422.604 153.701 423.316C152.757 424.028 151.537 424.384 150.041 424.384Z" fill="white"/>
<line x1="5" y1="-2.18557e-07" x2="5.00002" y2="465" stroke="white" stroke-width="10"/>
</svg>
